<svg xmlns="http://www.w3.org/2000/svg" width="856" height="223" viewBox="370 139 856 223"><path d="M0 0 C1.08990234 -0.01160156 2.17980469 -0.02320313 3.30273438 -0.03515625 C15.80065833 0.00939963 27.94862472 2.38714496 37.3125 11.0625 C43.47131637 17.5359121 46.17342105 25.17307231 46.2043457 34.01049805 C46.21489738 35.70827644 46.21489738 35.70827644 46.22566223 37.44035339 C46.22982651 38.66015396 46.23399078 39.87995453 46.23828125 41.13671875 C46.26148362 43.72591955 46.28560113 46.31511228 46.31054688 48.90429688 C46.3468568 52.98136383 46.37667042 57.05828099 46.38842773 61.13549805 C46.40052509 65.07368385 46.44419194 69.01125805 46.48828125 72.94921875 C46.48637283 74.15889816 46.48446442 75.36857758 46.48249817 76.61491394 C46.57495337 83.048921 47.17361533 87.95605829 50.20768738 93.68293762 C51.0625 95.375 51.0625 95.375 51.0625 97.375 C44.1325 97.375 37.2025 97.375 30.0625 97.375 C28.7425 93.745 27.4225 90.115 26.0625 86.375 C24.886875 87.4475 23.71125 88.52 22.5 89.625 C12.62552577 98.15764672 1.81198914 100.99120833 -11.2265625 100.59765625 C-15.00097805 100.28765382 -18.37061773 99.64113468 -21.9375 98.375 C-22.66582031 98.11847656 -23.39414062 97.86195313 -24.14453125 97.59765625 C-32.76417535 94.17623023 -39.22740751 88.7893033 -43.09765625 80.25390625 C-45.77187007 71.08695004 -44.61184463 60.72368926 -40.375 52.25 C-33.28701637 43.88981418 -22.65817558 39.55887828 -11.9375 38.375 C1.30105232 37.54270151 14.71538324 38.05695345 27.0625 43.375 C26.50513029 31.96219756 26.50513029 31.96219756 20.64453125 22.6015625 C14.14107009 17.55937286 8.83450345 17.19366538 0.875 17.1875 C0.06224609 17.17525391 -0.75050781 17.16300781 -1.58789062 17.15039062 C-9.54595184 17.13139764 -16.62185045 18.02671374 -23.375 22.5 C-27.77003589 25.375 -27.77003589 25.375 -29.9375 25.375 C-31.44062477 23.29671507 -32.79474824 21.24708449 -34.125 19.0625 C-34.69637695 18.17014648 -34.69637695 18.17014648 -35.27929688 17.25976562 C-36.25112948 15.68119906 -37.10271849 14.03013469 -37.9375 12.375 C-36.9375 9.375 -36.9375 9.375 -34.3828125 7.875 C-33.28710938 7.38 -32.19140625 6.885 -31.0625 6.375 C-29.99257813 5.88 -28.92265625 5.385 -27.8203125 4.875 C-18.5578205 1.11641546 -9.96645774 -0.10571375 0 0 Z " transform="translate(657.9375,179.625)" style="fill: #dddddd;"/><path d="M0 0 C1.03278076 0.46599609 1.03278076 0.46599609 2.08642578 0.94140625 C4.22405703 1.9237824 6.33386388 2.94693541 8.4375 4 C9.40695557 4.47953125 9.40695557 4.47953125 10.39599609 4.96875 C13.12019712 6.445072 14.77508726 7.54181628 16.15625 10.35546875 C15.93051861 14.17597254 14.26790763 16.22492932 12.0625 19.3125 C11.31097656 20.38113281 10.55945312 21.44976562 9.78515625 22.55078125 C9.19605469 23.35902344 8.60695313 24.16726562 8 25 C4.10249419 24.43434429 1.57883783 23.29536002 -1.6875 21.125 C-11.1804255 15.22552171 -21.37360574 13.81723342 -32.375 13.6875 C-33.59316406 13.64399414 -33.59316406 13.64399414 -34.8359375 13.59960938 C-42.27238635 13.52214637 -47.30226988 15.70405948 -52.9375 20.5 C-56.39224672 24.68757179 -56.42922192 29.17499077 -56.3203125 34.47265625 C-55.77730391 38.75712643 -54.26093123 41.20000208 -51 44 C-42.71977875 49.42001864 -33.53326371 51.76105071 -24 54 C-8.41997354 57.66698353 7.71405293 63.26728156 17.41796875 77.0078125 C22.11165178 85.64961159 22.26557001 97.61406711 20 107 C16.11091757 116.4841564 10.13380091 123.95593007 0.8515625 128.5625 C-2.40019814 129.8601147 -5.65681765 130.96288139 -9 132 C-9.89460938 132.31839844 -10.78921875 132.63679687 -11.7109375 132.96484375 C-27.31574132 138.04929184 -47.52572236 135.45416435 -62.1809082 128.31347656 C-79.31312351 119.19941366 -79.31312351 119.19941366 -83.0234375 112.01953125 C-82.98709921 108.88838223 -81.36723377 107.65609071 -79.25 105.4375 C-78.53328125 104.67308594 -77.8165625 103.90867187 -77.078125 103.12109375 C-76.39234375 102.42113281 -75.7065625 101.72117187 -75 101 C-74.19369141 100.11054688 -74.19369141 100.11054688 -73.37109375 99.203125 C-72.69240234 98.60757813 -72.69240234 98.60757813 -72 98 C-69.8125 98.3125 -69.8125 98.3125 -68 99 C-68 99.66 -68 100.32 -68 101 C-67.42765625 101.26167969 -66.8553125 101.52335937 -66.265625 101.79296875 C-63.84642489 103.08181847 -61.90116007 104.61639302 -59.75 106.3125 C-47.0769347 115.16882341 -31.85337391 116.92654092 -16.8515625 114.48828125 C-10.28970588 112.78377495 -6.04153354 109.92619808 -2.125 104.3125 C-0.58668627 99.78302067 -0.29173606 95.73459045 -1 91 C-3.71852051 85.84418524 -6.64497192 82.22058344 -12.1875 80.3125 C-12.90292969 80.06113281 -13.61835937 79.80976563 -14.35546875 79.55078125 C-14.89816406 79.36902344 -15.44085937 79.18726563 -16 79 C-16 78.34 -16 77.68 -16 77 C-17.26457031 77.07154297 -17.26457031 77.07154297 -18.5546875 77.14453125 C-22.48250278 76.97975895 -25.43022423 76.01714861 -29.125 74.6875 C-33.74590189 73.05365885 -38.25952114 71.65006529 -43.0625 70.625 C-54.88140971 67.82241301 -66.02999791 61.88539092 -72.57421875 51.46875 C-77.74236475 42.5200698 -79.51482298 34.38437271 -78 24 C-74.31747855 12.68183502 -67.35039956 4.22209701 -56.875 -1.4375 C-40.60366244 -9.19825317 -16.06652761 -7.38527678 0 0 Z " transform="translate(1040,145)" style="fill: #FA6008;"/><path d="M0 0 C7.59 0 15.18 0 23 0 C38.24051719 30.20888228 51.91991879 61.17905656 65.69287109 92.078125 C66.53774178 93.96669661 67.38918755 95.8523466 68.24853516 97.734375 C68.61640137 98.54390625 68.98426758 99.3534375 69.36328125 100.1875 C69.68208252 100.88230469 70.00088379 101.57710938 70.3293457 102.29296875 C71 104 71 104 71 106 C71.66 106 72.32 106 73 106 C73.10054688 105.31421875 73.20109375 104.6284375 73.3046875 103.921875 C74.13235734 100.44380174 75.55813827 97.43886932 77.125 94.25 C80.85314118 86.49240093 84.44252808 78.6757753 87.99285889 70.83572388 C93.60199888 58.45100226 99.2337648 46.07657155 104.89846802 33.71716309 C105.62093146 32.14001307 106.3425393 30.56247078 107.0632019 28.98449707 C111.52301173 19.22134577 116.14651695 9.57425366 121 0 C128.59 0 136.18 0 144 0 C142.52072158 4.43783525 141.02171335 8.2290349 138.98046875 12.3828125 C138.68558563 12.98647644 138.39070251 13.59014038 138.08688354 14.21209717 C137.45312177 15.50928537 136.81784352 16.80573358 136.18118286 18.10150146 C134.47870485 21.56836388 132.7895437 25.04168595 131.1015625 28.515625 C130.75732742 29.22391449 130.41309235 29.93220398 130.0584259 30.66195679 C126.64771674 37.69677948 123.34219617 44.7783362 120.0625 51.875 C119.52633057 53.03483398 118.99016113 54.19466797 118.43774414 55.38964844 C117.41881865 57.59549431 116.40032207 59.80153837 115.38232422 62.0078125 C111.2856892 70.87541384 107.17375203 79.72757675 102.75 88.4375 C97.68333863 98.47785648 93.0859089 108.74319193 88.39648438 118.96337891 C85.62556664 124.9886717 82.81152133 130.99356807 80 137 C74.72 137 69.44 137 64 137 C59.90686096 128.89861665 55.98062514 120.74539741 52.1875 112.5 C51.04004125 110.01776959 49.89189575 107.53587512 48.7421875 105.0546875 C48.44188126 104.40656097 48.14157501 103.75843445 47.83216858 103.09066772 C44.19535794 95.25163299 40.50574435 87.43756706 36.8125 79.625 C36.45971985 78.87870331 36.1069397 78.13240662 35.74346924 77.36349487 C33.54449834 72.71263093 31.34377224 68.06259931 29.14233398 63.41290283 C27.97680388 60.95100383 26.81160407 58.48894873 25.64648438 56.02685547 C23.67325825 51.85721588 21.69948496 47.68783566 19.72537231 43.51861572 C18.95431318 41.89005304 18.18337676 40.26143225 17.41256714 38.63275146 C13.83995164 31.08431114 10.26502354 23.53733672 6.64453125 16.01171875 C6.1662085 15.0158374 5.68788574 14.01995605 5.19506836 12.99389648 C4.34648013 11.23001946 3.49469226 9.46767625 2.63891602 7.70727539 C0 2.22087333 0 2.22087333 0 0 Z " transform="translate(370,141)" style="fill: #dddddd;"/><path d="M0 0 C3.58271776 -0.1743959 7.16434602 -0.28087658 10.75 -0.375 C11.76578125 -0.42527344 12.7815625 -0.47554687 13.828125 -0.52734375 C16.65787862 -0.58319415 19.21974979 -0.53288129 22 0 C24.390625 2.37890625 24.390625 2.37890625 26 6 C26.79037922 7.58007174 27.58217341 9.1594361 28.375 10.73828125 C29.25458277 12.59418914 30.12931261 14.4524023 31 16.3125 C31.97231538 18.36865081 32.94498452 20.42463436 33.91796875 22.48046875 C34.67279541 24.08027588 34.67279541 24.08027588 35.44287109 25.71240234 C37.52787117 30.11450505 39.64085118 34.5028961 41.75488281 38.89111328 C55 66.39030172 55 66.39030172 55 69 C58.30585332 65.93448379 59.93526113 62.34654182 61.80859375 58.30859375 C62.17179214 57.5388472 62.53499054 56.76910065 62.90919495 55.97602844 C64.091494 53.4660465 65.26449925 50.9518389 66.4375 48.4375 C67.24751987 46.71427041 68.05806931 44.99128965 68.86914062 43.26855469 C72.54360664 35.45201345 76.18572325 27.6209056 79.78515625 19.76953125 C80.06564316 19.15834946 80.34613007 18.54716766 80.63511658 17.91746521 C81.92113999 15.11296291 83.20061537 12.30576835 84.47045898 9.49389648 C85.13476929 8.03512085 85.13476929 8.03512085 85.8125 6.546875 C86.19019531 5.70995117 86.56789063 4.87302734 86.95703125 4.01074219 C88 2 88 2 90 0 C92.15478516 -0.22705078 92.15478516 -0.22705078 94.7890625 -0.1953125 C96.20058594 -0.18564453 96.20058594 -0.18564453 97.640625 -0.17578125 C98.62546875 -0.15902344 99.6103125 -0.14226562 100.625 -0.125 C101.61757813 -0.11597656 102.61015625 -0.10695312 103.6328125 -0.09765625 C106.08878134 -0.07404116 108.54427168 -0.04110799 111 0 C109.11810547 6.29327671 106.66700909 11.88257986 103.5 17.625 C99.87551248 24.35788599 96.44262697 31.143842 93.1875 38.0625 C87.73816732 49.60894519 82.03176092 61.02299664 76.3125 72.4375 C75.86296967 73.33469757 75.41343933 74.23189514 74.95028687 75.15628052 C72.77974633 79.48711548 70.6076581 83.81717121 68.43457031 88.14672852 C65.82959608 93.33768748 63.23258574 98.53260902 60.63664246 103.72808838 C58.94289591 107.11706368 57.24510899 110.50391889 55.5390625 113.88671875 C55.21292969 114.53447266 54.88679687 115.18222656 54.55078125 115.84960938 C53.91158622 117.11855985 53.27086529 118.38674246 52.62890625 119.65429688 C50.91271805 123.06930296 49.42348113 126.44129718 48 130 C40.74 130 33.48 130 26 130 C26.89553652 125.52231739 27.88182624 122.98752757 30.01953125 119.0703125 C30.62990234 117.94496094 31.24027344 116.81960938 31.86914062 115.66015625 C32.51683837 114.48172207 33.16462547 113.303337 33.8125 112.125 C34.44220703 110.96613281 35.07191406 109.80726563 35.72070312 108.61328125 C40.74150445 99.39355164 40.74150445 99.39355164 43.51171875 94.9921875 C45.168967 92.20071886 45.168967 92.20071886 45.03515625 89.61328125 C43.46159899 85.64079141 41.48143998 81.93572633 39.4375 78.1875 C38.51563921 76.4668352 37.59508292 74.74547092 36.67578125 73.0234375 C36.21896973 72.16975586 35.7621582 71.31607422 35.29150391 70.43652344 C33.51636305 67.08758095 31.80965592 63.70766791 30.125 60.3125 C29.81216064 59.6834375 29.49932129 59.054375 29.17700195 58.40625 C28.11668309 56.27148515 27.0584067 54.13571351 26 52 C20.25911125 40.43111364 14.51427497 28.86734898 8.5 17.4375 C8.10312988 16.68299561 7.70625977 15.92849121 7.29736328 15.15112305 C5.50093945 11.7585186 3.66336109 8.4077596 1.71875 5.09765625 C0 2 0 2 0 0 Z " transform="translate(718,182)" style="fill: #dddddd;"/><path d="M0 0 C6.6 0 13.2 0 20 0 C20.04523954 13.40447693 20.08190978 26.8089029 20.10362434 40.21343899 C20.11404783 46.43813864 20.12818092 52.66278321 20.15087891 58.88745117 C20.17265831 64.89803164 20.18457942 70.90855921 20.18975449 76.9191761 C20.19344108 79.20881037 20.20064004 81.49844184 20.21146011 83.78805351 C20.22604264 87.0025641 20.2279751 90.21685798 20.22705078 93.43139648 C20.23424133 94.37151581 20.24143188 95.31163513 20.24884033 96.28024292 C20.21712408 106.51779494 18.28835162 114.745635 12 123 C6.7228656 128.17826537 -0.35377725 131.12787878 -7.71875 131.29296875 C-9.31276723 131.27337018 -10.90666564 131.23810264 -12.5 131.1875 C-13.32242188 131.17396484 -14.14484375 131.16042969 -14.9921875 131.14648438 C-16.99508221 131.11155016 -18.99763356 131.05776057 -21 131 C-21 125.39 -21 119.78 -21 114 C-18.03776042 113.57682292 -15.07552083 113.15364583 -12.11328125 112.73046875 C-8.68621597 111.9263769 -6.70275313 111.26994428 -4 109 C-1.12370234 102.79974225 -0.55700638 97.59679919 -0.56762695 90.8203125 C-0.5574353 89.83403366 -0.54724365 88.84775482 -0.53674316 87.83158875 C-0.50673024 84.5960005 -0.497365 81.36070888 -0.48828125 78.125 C-0.47142592 75.87197902 -0.45327453 73.61896739 -0.43388367 71.3659668 C-0.38647055 65.4543144 -0.35660486 59.54269996 -0.33044434 53.63092041 C-0.30059505 47.59111033 -0.25407969 41.55143084 -0.20898438 35.51171875 C-0.12304992 23.67453262 -0.05720211 11.83735988 0 0 Z " transform="translate(575,181)" style="fill: #dddddd;"/><path d="M0 0 C0.66 0 1.32 0 2 0 C3.22998047 1.6262207 3.22998047 1.6262207 4.6171875 3.92578125 C5.13547119 4.775354 5.65375488 5.62492676 6.18774414 6.50024414 C6.74453857 7.42828857 7.30133301 8.35633301 7.875 9.3125 C9.0577203 11.25574021 10.24133228 13.19843797 11.42578125 15.140625 C12.02471191 16.12611328 12.62364258 17.11160156 13.24072266 18.12695312 C15.79844871 22.30393345 18.4294432 26.43277209 21.0625 30.5625 C25.14158153 36.98407084 29.10628575 43.46448418 33 50 C39.82610149 61.45174196 46.89703271 72.74398711 54.19921875 83.8984375 C54.71154053 84.68259033 55.2238623 85.46674316 55.75170898 86.2746582 C56.72987406 87.76828456 57.71227687 89.25914665 58.69946289 90.74682617 C62 95.7799769 62 95.7799769 62 98 C56.53394126 99.55147002 51.31133835 100.510751 46 98 C40.20014544 92.16399195 36.5722559 84.35286939 32.72558594 77.16308594 C30.31340579 72.74143823 27.61558604 68.53522116 24.875 64.3125 C23.91157847 62.79584591 22.95065454 61.27760249 21.9921875 59.7578125 C21.51104492 58.99500977 21.02990234 58.23220703 20.53417969 57.44628906 C17.11348431 51.99190211 13.73667382 46.51004815 10.36279297 41.02661133 C8.1758163 37.47888745 5.98993512 33.95179893 3.625 30.51953125 C2 28 2 28 2 26 C-0.16012708 28.0323296 -1.75840663 30.01910169 -3.27734375 32.5625 C-3.70200928 33.26689209 -4.1266748 33.97128418 -4.56420898 34.69702148 C-5.01739502 35.45700439 -5.47058105 36.2169873 -5.9375 37 C-6.92586692 38.63745359 -7.91549156 40.27414857 -8.90625 41.91015625 C-9.67195312 43.17496826 -9.67195312 43.17496826 -10.453125 44.46533203 C-12.90516259 48.4831752 -15.41769924 52.46191549 -17.9375 56.4375 C-18.4327417 57.21947754 -18.9279834 58.00145508 -19.43823242 58.80712891 C-20.44716991 60.39919281 -21.45653005 61.99098894 -22.46630859 63.58251953 C-24.54887201 66.86515929 -26.62962334 70.14892144 -28.7043457 73.43652344 C-29.72540128 75.0473753 -30.75376932 76.65361794 -31.78979492 78.25488281 C-34.06358507 81.79081445 -36.19393629 85.2674923 -37.96875 89.08203125 C-39.63013476 92.52701446 -41.13923317 95.36994017 -44 98 C-49.2549381 99.47473804 -54.67747743 98.75574653 -60 98 C-58.30656726 93.11323694 -55.64874996 88.93198423 -52.9375 84.5625 C-52.44435303 83.76191162 -51.95120605 82.96132324 -51.44311523 82.13647461 C-47.81828851 76.2709097 -44.11488847 70.45958879 -40.3671875 64.671875 C-36.56226721 58.78771011 -32.84123844 52.85005869 -29.10546875 46.921875 C-27.0738675 43.69832457 -25.03477787 40.4797383 -22.98828125 37.265625 C-16.18998469 26.57435314 -9.60099378 15.77238471 -3.13818359 4.875 C-2.13535107 3.22297217 -1.07200302 1.60800453 0 0 Z " transform="translate(874,180)" style="fill: #dedede;"/><path d="M0 0 C1.14082031 0.00644531 2.28164062 0.01289063 3.45703125 0.01953125 C6.1875 0.1875 6.1875 0.1875 7.1875 1.1875 C7.27401611 2.60320123 7.29454904 4.023095 7.28515625 5.44140625 C7.28193359 6.29541016 7.27871094 7.14941406 7.27539062 8.02929688 C7.26282227 9.37604492 7.26282227 9.37604492 7.25 10.75 C7.24548828 11.65169922 7.24097656 12.55339844 7.23632812 13.48242188 C7.22450225 15.71751314 7.2080222 17.95247437 7.1875 20.1875 C5.99253906 20.21328125 4.79757812 20.2390625 3.56640625 20.265625 C-5.02593662 20.54003116 -12.20543871 20.80933523 -19.8125 25.1875 C-20.8025 25.5175 -21.7925 25.8475 -22.8125 26.1875 C-22.8125 26.8475 -22.8125 27.5075 -22.8125 28.1875 C-23.92625 29.2084375 -23.92625 29.2084375 -25.0625 30.25 C-31.21833557 36.29364317 -32.2741838 43.57077108 -32.41815186 51.89772034 C-32.41938049 53.09807419 -32.42060913 54.29842804 -32.421875 55.53515625 C-32.43841125 56.78759628 -32.45494751 58.04003632 -32.47198486 59.33042908 C-32.51210884 62.6298792 -32.53558333 65.92887469 -32.55072021 69.22851562 C-32.57041101 72.60757866 -32.6123666 75.98636124 -32.65234375 79.36523438 C-32.72605816 85.97262477 -32.77573247 92.5798049 -32.8125 99.1875 C-39.4125 99.1875 -46.0125 99.1875 -52.8125 99.1875 C-52.8125 67.5075 -52.8125 35.8275 -52.8125 3.1875 C-46.2125 3.1875 -39.6125 3.1875 -32.8125 3.1875 C-32.4825 7.4775 -32.1525 11.7675 -31.8125 16.1875 C-30.8225 14.8675 -29.8325 13.5475 -28.8125 12.1875 C-28.1525 12.1875 -27.4925 12.1875 -26.8125 12.1875 C-26.8125 11.5275 -26.8125 10.8675 -26.8125 10.1875 C-26.1525 10.1875 -25.4925 10.1875 -24.8125 10.1875 C-24.8125 9.5275 -24.8125 8.8675 -24.8125 8.1875 C-22.94012629 7.22404556 -21.0644701 6.26696898 -19.1875 5.3125 C-18.14335938 4.77882812 -17.09921875 4.24515625 -16.0234375 3.6953125 C-10.50081611 1.10196474 -6.12567608 -0.0770085 0 0 Z " transform="translate(1180.8125,177.8125)" style="fill: #F9610A;"/><path d="M0 0 C6.6 0 13.2 0 20 0 C20 31.68 20 63.36 20 96 C13.4 96 6.8 96 0 96 C0 64.32 0 32.64 0 0 Z " transform="translate(528,181)" style="fill: #dddddd;"/><path d="M0 0 C6.27 0 12.54 0 19 0 C19 31.68 19 63.36 19 96 C12.73 96 6.46 96 0 96 C0 64.32 0 32.64 0 0 Z " transform="translate(1205,181)" style="fill: #F95F07;"/><path d="M0 0 C6.27 0 12.54 0 19 0 C19 31.68 19 63.36 19 96 C12.73 96 6.46 96 0 96 C0 64.32 0 32.64 0 0 Z " transform="translate(1082,181)" style="fill: #F8600A;"/><path d="M0 0 C1.22577759 0.00592163 1.22577759 0.00592163 2.47631836 0.01196289 C10.59296581 0.20138568 18.49114271 1.77682136 25.8125 5.4375 C25.89410748 7.33260699 25.95196459 9.22874504 26 11.125 C26.05220703 12.70861328 26.05220703 12.70861328 26.10546875 14.32421875 C25.65873942 19.07146245 23.37733272 22.30077734 19.9375 25.5 C12.18353103 31.79095596 1.82809574 33.21437678 -7.87890625 32.87890625 C-13.76680873 32.09338915 -18.84147726 30.30282465 -22.6875 25.60546875 C-24.82657308 21.83980886 -26.0150061 17.80360301 -25.7578125 13.45703125 C-24.55034013 9.1812558 -21.71764407 6.01788083 -18.1875 3.4375 C-12.21296041 0.72439861 -6.50835752 -0.08183636 0 0 Z " transform="translate(658.1875,231.5625)" style="fill: #FBFBFB;"/><path d="M0 0 C0.66 0 1.32 0 2 0 C3.53851766 1.71951974 5.00731759 3.50187497 6.4375 5.3125 C9.45235569 9.16467002 9.45235569 9.16467002 12.78515625 12.73046875 C14 14 14 14 14 16 C14.66 16 15.32 16 16 16 C16 16.66 16 17.32 16 18 C16.66 18 17.32 18 18 18 C19.51984883 19.67535459 20.96706453 21.41705622 22.375 23.1875 C23.53128906 24.63189453 23.53128906 24.63189453 24.7109375 26.10546875 C25.46632813 27.06066406 26.22171875 28.01585937 27 29 C28.33277854 30.66711035 29.66592391 32.33392781 31 34 C26.17047347 33.43570024 22.51194476 32.01112343 18.1875 29.8125 C17.57656494 29.50441406 16.96562988 29.19632812 16.33618164 28.87890625 C11.91559199 26.60362846 7.8880549 24.0140941 3.96484375 20.96875 C2.01206767 19.8145429 2.01206767 19.8145429 -0.359375 20.07421875 C-3.79836993 21.27990188 -6.2660744 23.13833308 -9.1875 25.3125 C-15.10094403 29.58594663 -21.45800863 34 -29 34 C-27.56438314 30.81293058 -25.79733671 28.37830895 -23.5 25.75 C-22.8915625 25.04359375 -22.283125 24.3371875 -21.65625 23.609375 C-20 22 -20 22 -18 22 C-17.690625 21.21302734 -17.690625 21.21302734 -17.375 20.41015625 C-15.40448678 16.95616007 -12.7343654 14.30406938 -10 11.4375 C-8.91478852 10.29214118 -7.83138535 9.14506568 -6.75 7.99609375 C-6.27046875 7.49263428 -5.7909375 6.9891748 -5.296875 6.47045898 C-3.78377818 4.82120675 -3.78377818 4.82120675 -2 2 C-1.34 2 -0.68 2 0 2 C0 1.34 0 0.68 0 0 Z " transform="translate(874,244)" style="fill: #F75F0B;"/><path d="M0 0 C3.78580423 2.03850997 7.05061257 4.10122513 9 8 C9.51009142 13.3559599 9.4708491 16.66143863 6 21 C2.03425675 24.60681285 -1.18634291 24.497611 -6.36328125 24.359375 C-9.91148863 23.87576748 -11.68333225 22.70277904 -14 20 C-15.44731488 15.65805537 -15.65892365 11.5328154 -15 7 C-10.75368922 1.4912725 -6.95824629 -0.70761827 0 0 Z " transform="translate(541,139)" style="fill: #dedede;"/><path d="M0 0 C3.78580423 2.03850997 7.05061257 4.10122513 9 8 C9.55335968 12.9011857 9.5327637 15.00795724 7.1875 19.375 C4.80469263 22.23436884 3.21855733 23.82080039 -0.5234375 24.37109375 C-8.27422176 24.55159147 -8.27422176 24.55159147 -12.125 21.625 C-15.51506912 16.87890323 -15.82439645 12.75265653 -15 7 C-10.75368922 1.4912725 -6.95824629 -0.70761827 0 0 Z " transform="translate(588,139)" style="fill: #dedede;"/><path d="M0 0 C3.13243551 1.44092033 5.14491347 3.08486403 7 6 C8.19313312 11.05038539 7.54863206 14.86209646 5.3125 19.5 C2.06286683 23.01311694 -0.26666086 23.77872266 -4.9375 24.375 C-9.84768745 23.77375256 -12.80165507 21.47795875 -15.875 17.6875 C-17.3877643 14.07367417 -17.60395126 11.89213031 -17 8 C-12.55925552 1.1555498 -8.16806605 -1.34360696 0 0 Z " transform="translate(1219,140)" style="fill: #F9630B;"/><path d="M0 0 C3.11233887 1.70959459 5.38719859 3.77439717 7 7 C7.57322775 11.69858808 7.41740893 15.14972255 5.3125 19.4375 C2.07915459 23.02039627 -0.2318274 23.77427584 -4.9375 24.375 C-8.86684549 23.89385565 -10.92648237 22.44484357 -14 20 C-16.99043746 15.51434381 -16.82273636 11.25055384 -16 6 C-12.83127788 -0.56199936 -6.65987818 -1.4787736 0 0 Z " transform="translate(1096,140)" style="fill: #F86209;"/><path d="M0 0 C3.02508145 1.73602105 5.41790069 3.83580137 7 7 C7.54399285 11.539219 7.62289461 14.9544269 5.25 18.9375 C1.97763658 21.93716647 0.06526308 22.79900697 -4.3125 23.625 C-9.08471645 22.81614975 -10.7435584 21.02544231 -13.66796875 17.2890625 C-15.91519623 13.42725809 -15.85374504 11.41101605 -15 7 C-11.37068899 0.89375046 -7.03562875 -1.20088654 0 0 Z " transform="translate(1042,335)" style="fill: #e7e7e7;"/><path d="M0 0 C12.05357143 -0.53571429 12.05357143 -0.53571429 15.625 1.75 C18.40122671 4.38010952 19.85635154 6.32709403 20.1875 10.18359375 C19.69175431 16.14287002 19.69175431 16.14287002 17.66015625 18.66015625 C11.27466783 24.01522356 9.5803194 23 0 23 C0 15.41 0 7.82 0 0 Z " transform="translate(582,335)" style="fill: #eeeeee;"/><path d="M0 0 C2.0625 -0.061875 4.125 -0.12375 6.25 -0.1875 C7.99023438 -0.23970703 7.99023438 -0.23970703 9.765625 -0.29296875 C13.2419069 0.02191186 14.58672897 0.5278687 17 3 C17.55472439 6.60570855 16.83935859 8.89608238 15 12 C15.99 12.33 16.98 12.66 18 13 C18.3125 15.75 18.3125 15.75 18 19 C15.24673994 21.87654036 13.65553552 22.92314941 9.66796875 23.390625 C6.4453125 23.26041667 3.22265625 23.13020833 0 23 C0 15.41 0 7.82 0 0 Z " transform="translate(500,335)" style="fill: #eeeeee;"/><path d="M0 0 C1.04671875 -0.02578125 2.0934375 -0.0515625 3.171875 -0.078125 C6.67423141 0.29522264 8.51916366 1.03742457 11.25 3.25 C12.07903748 5.95528021 11.80212051 8.48939744 11.25 11.25 C9.75 13.25 9.75 13.25 8.25 14.25 C9.44899698 17.3331351 10.72700477 20.31279492 12.25 23.25 C10 23.625 10 23.625 7.25 23.25 C3.25 18.27702703 3.25 18.27702703 3.25 15.25 C1.27 15.25 -0.71 15.25 -2.75 15.25 C-2.75 17.89 -2.75 20.53 -2.75 23.25 C-4.07 22.92 -5.39 22.59 -6.75 22.25 C-6.77887814 18.77085059 -6.79675687 15.29173169 -6.8125 11.8125 C-6.82087891 10.81927734 -6.82925781 9.82605469 -6.83789062 8.80273438 C-6.84111328 7.85849609 -6.84433594 6.91425781 -6.84765625 5.94140625 C-6.85289307 5.06685791 -6.85812988 4.19230957 -6.86352539 3.29125977 C-6.62804177 -0.94288765 -3.58296453 0.05243363 0 0 Z " transform="translate(710.75,334.75)" style="fill: #f4f4f4;"/><path d="M0 0 C12.64280186 -0.41679567 12.64280186 -0.41679567 17 3 C18.0625 6.4375 18.0625 6.4375 18 10 C16.0625 12.4375 16.0625 12.4375 14 14 C14.28875 14.556875 14.5775 15.11375 14.875 15.6875 C16.0413253 18.08494645 17.0339881 20.51596939 18 23 C15.75 22.875 15.75 22.875 13 22 C11.66666667 20 10.33333333 18 9 16 C6.37233611 15.03780298 6.37233611 15.03780298 4 15 C4 17.64 4 20.28 4 23 C2.68 23 1.36 23 0 23 C0 15.41 0 7.82 0 0 Z " transform="translate(839,335)" style="fill: #f1f1f1;"/><path d="M0 0 C5 1 5 1 6.58203125 2.84765625 C6.98808594 3.57855469 7.39414063 4.30945313 7.8125 5.0625 C8.23144531 5.79597656 8.65039062 6.52945312 9.08203125 7.28515625 C9.38496094 7.85105469 9.68789062 8.41695313 10 9 C12.87721845 5.43716858 12.87721845 5.43716858 15.5 1.6875 C15.995 1.130625 16.49 0.57375 17 0 C18.32 0 19.64 0 21 0 C21 7.59 21 15.18 21 23 C19.68 22.67 18.36 22.34 17 22 C16.505 15.565 16.505 15.565 16 9 C14.824375 10.7325 14.824375 10.7325 13.625 12.5 C12.2890625 14.46875 12.2890625 14.46875 11 16 C10.34 16 9.68 16 9 16 C7.02 12.535 7.02 12.535 5 9 C4.67 13.29 4.34 17.58 4 22 C2.68 22.33 1.36 22.66 0 23 C0 15.41 0 7.82 0 0 Z " transform="translate(1055,335)" style="fill: #f2f2f2;"/><path d="M0 0 C3.23012516 3.88948557 6.02516627 7.94048716 8.75 12.1875 C9.16121094 12.81591797 9.57242188 13.44433594 9.99609375 14.09179688 C13 18.75733233 13 18.75733233 13 21 C1.93602891 22.31492574 1.93602891 22.31492574 -3 21 C-6.5464854 17.87074817 -8.54977053 14.49376038 -10 10 C-9.67 9.01 -9.34 8.02 -9 7 C-8.4225 6.896875 -7.845 6.79375 -7.25 6.6875 C-3.66774262 5.59292136 -2.24560948 2.93176794 0 0 Z " transform="translate(923,257)" style="fill: #dedede;"/><path d="M0 0 C5.73572705 1.14714541 6.14748143 1.85388554 9.3125 6.4375 C10.00988281 7.42621094 10.70726562 8.41492188 11.42578125 9.43359375 C13 12 13 12 13 14 C13.66 14 14.32 14 15 14 C15 9.38 15 4.76 15 0 C16.32 0 17.64 0 19 0 C19 7.59 19 15.18 19 23 C17.68 23 16.36 23 15 23 C13.20861075 20.89422787 11.74055331 18.92637547 10.25 16.625 C9.83878906 16.02171875 9.42757812 15.4184375 9.00390625 14.796875 C6 10.30598526 6 10.30598526 6 8 C5.34 8 4.68 8 4 8 C4 12.95 4 17.9 4 23 C2.68 22.67 1.36 22.34 0 22 C0 14.74 0 7.48 0 0 Z " transform="translate(942,335)" style="fill: #e9e9e9;"/><path d="M0 0 C5.28 0 10.56 0 16 0 C16 1.32 16 2.64 16 4 C12.04 4 8.08 4 4 4 C4 5.65 4 7.3 4 9 C7.63 9 11.26 9 15 9 C15 10.32 15 11.64 15 13 C11.37 13 7.74 13 4 13 C4 14.98 4 16.96 4 19 C8.29 19 12.58 19 17 19 C16.67 20.32 16.34 21.64 16 23 C13.52076199 23.02685095 11.0418116 23.04676547 8.5625 23.0625 C7.85544922 23.07087891 7.14839844 23.07925781 6.41992188 23.08789062 C4.61306441 23.09653588 2.80612397 23.05220011 1 23 C0 22 0 22 -0.11352539 19.86694336 C-0.10828857 18.95050049 -0.10305176 18.03405762 -0.09765625 17.08984375 C-0.09443359 16.10048828 -0.09121094 15.11113281 -0.08789062 14.09179688 C-0.07951172 13.05087891 -0.07113281 12.00996094 -0.0625 10.9375 C-0.05798828 9.89271484 -0.05347656 8.84792969 -0.04882812 7.77148438 C-0.03699927 5.18096546 -0.01906319 2.59047578 0 0 Z " transform="translate(1082,335)" style="fill: #f1f1f1;"/><path d="M0 0 C2.36010742 0.22485352 2.36010742 0.22485352 5 1 C6.30200195 2.91772461 6.30200195 2.91772461 7.23828125 5.40234375 C7.58310547 6.29244141 7.92792969 7.18253906 8.28320312 8.09960938 C8.62287109 9.03611328 8.96253906 9.97261719 9.3125 10.9375 C9.67150391 11.87013672 10.03050781 12.80277344 10.40039062 13.76367188 C13 20.61178571 13 20.61178571 13 23 C11.68 23 10.36 23 9 23 C8.34 21.35 7.68 19.7 7 18 C3.7 18 0.4 18 -3 18 C-3.99 20.475 -3.99 20.475 -5 23 C-6.32 23 -7.64 23 -9 23 C-6.54234965 15.08090444 -3.33181427 7.58014704 0 0 Z " transform="translate(870,335)" style="fill: #e3e3e3;"/><path d="M0 0 C2.31436137 0.47549606 4.09290891 1.29272851 6.1484375 2.44140625 C5.8184375 3.43140625 5.4884375 4.42140625 5.1484375 5.44140625 C4.54515625 5.33441406 3.941875 5.22742188 3.3203125 5.1171875 C-1.61611038 4.35040312 -1.61611038 4.35040312 -6.4140625 5.37890625 C-8.65243353 8.59048208 -8.48230793 11.65693365 -7.8515625 15.44140625 C-6.95398694 17.58920702 -6.95398694 17.58920702 -4.8515625 18.44140625 C-1.22620274 18.69176395 -1.22620274 18.69176395 2.1484375 18.44140625 C2.4784375 16.79140625 2.8084375 15.14140625 3.1484375 13.44140625 C1.4984375 13.44140625 -0.1515625 13.44140625 -1.8515625 13.44140625 C-1.8515625 12.45140625 -1.8515625 11.46140625 -1.8515625 10.44140625 C1.1184375 10.44140625 4.0884375 10.44140625 7.1484375 10.44140625 C7.43372602 13.82049028 7.56650092 17.0697519 7.1484375 20.44140625 C4.46896015 23.28835093 1.91171426 23.62944662 -1.8515625 23.87890625 C-5.93079399 23.71727632 -8.01480263 22.44503435 -10.8515625 19.44140625 C-13.08582988 16.46238308 -13.40312298 13.24547887 -13.28515625 9.546875 C-11.80576753 2.36317662 -6.90824181 -0.3757114 0 0 Z " transform="translate(657.8515625,334.55859375)" style="fill: #e6e6e6;"/><path d="M0 0 C4.66060964 1.16515241 5.26315036 2.15332129 8.0625 5.875 C10.28579861 8.80241429 12.39136932 11.39136932 15 14 C15 9.38 15 4.76 15 0 C15.99 0 16.98 0 18 0 C18 7.59 18 15.18 18 23 C17.01 23 16.02 23 15 23 C13.18534565 20.72065296 11.54999824 18.47772662 9.9375 16.0625 C7.10640854 11.35759552 7.10640854 11.35759552 3 8 C3 12.95 3 17.9 3 23 C2.01 23 1.02 23 0 23 C0 15.41 0 7.82 0 0 Z " transform="translate(620,335)" style="fill: #e0e0e0;"/><path d="M0 0 C0.99 0.66 1.98 1.32 3 2 C2.67 2.99 2.34 3.98 2 5 C0.14375 4.6596875 0.14375 4.6596875 -1.75 4.3125 C-4.53582128 3.98649964 -5.82738479 3.9352693 -8.5 4.9375 C-10.51228291 7.70438901 -10.51245483 9.76438101 -10.30859375 13.125 C-10.08111205 15.08446197 -10.08111205 15.08446197 -9 17 C-5.72032242 18.63983879 -2.62861311 18.17845638 1 18 C1 16.35 1 14.7 1 13 C-0.65 13 -2.3 13 -4 13 C-4 12.01 -4 11.02 -4 10 C-1.03 10 1.94 10 5 10 C5 13.3 5 16.6 5 20 C0.47355803 22.64962457 -2.75383373 23.74945232 -8 23 C-10.96798207 21.20323955 -13.42401242 19.15197515 -15 16 C-15.66917765 11.77201394 -16.10622288 7.72004167 -13.71875 4.0078125 C-9.33114601 -0.16041129 -5.90812263 -0.78774968 0 0 Z " transform="translate(982,335)" style="fill: #e0e0e0;"/><path d="M0 0 C1.32 0 2.64 0 4 0 C4 2.97 4 5.94 4 9 C7.63 9 11.26 9 15 9 C15 6.03 15 3.06 15 0 C15.99 0 16.98 0 18 0 C18 7.59 18 15.18 18 23 C17.01 23 16.02 23 15 23 C15 19.7 15 16.4 15 13 C11.37 13 7.74 13 4 13 C4 16.3 4 19.6 4 23 C2.68 22.67 1.36 22.34 0 22 C0 14.74 0 7.48 0 0 Z " transform="translate(1003,335)" style="fill: #ececec;"/><path d="M0 0 C1.32 0 2.64 0 4 0 C4.04898438 1.13179688 4.09796875 2.26359375 4.1484375 3.4296875 C4.22346514 4.91148339 4.29901297 6.393253 4.375 7.875 C4.4059375 8.62136719 4.436875 9.36773437 4.46875 10.13671875 C4.55643831 14.53473188 4.55643831 14.53473188 7 18 C10.08347826 18.16681109 10.08347826 18.16681109 13 18 C14.585869 14.828262 14.37866445 11.36486178 14.5625 7.875 C14.60568359 7.12089844 14.64886719 6.36679687 14.69335938 5.58984375 C14.7994832 3.72678112 14.90025001 1.86341476 15 0 C16.32 0 17.64 0 19 0 C19.1083667 2.7302389 19.18746694 5.45614543 19.25 8.1875 C19.30027344 9.34088867 19.30027344 9.34088867 19.3515625 10.51757812 C19.42066039 14.54253008 19.31755003 16.49808724 17.109375 19.98828125 C14.3952195 22.5767814 13.4627797 22.94760984 9.6875 23.375 C6 23 6 23 3.125 20.625 C-0.33717222 16.34819902 -0.12218439 13.1915018 -0.0625 7.875 C-0.05798828 7.12089844 -0.05347656 6.36679687 -0.04882812 5.58984375 C-0.03703499 3.72652873 -0.01909942 1.86325445 0 0 Z " transform="translate(728,335)" style="fill: #e7e7e7;"/><path d="M0 0 C1.32 0 2.64 0 4 0 C4.06058594 1.21558594 4.12117187 2.43117188 4.18359375 3.68359375 C4.26798332 5.26824228 4.3526321 6.85287702 4.4375 8.4375 C4.47681641 9.23994141 4.51613281 10.04238281 4.55664062 10.86914062 C4.4054296 14.75239561 4.4054296 14.75239561 6 18 C8.95804573 18.33340471 8.95804573 18.33340471 12 18 C14.40119059 14.39821412 14.43771322 11.49133631 14.625 7.3125 C14.68300781 6.2596582 14.68300781 6.2596582 14.7421875 5.18554688 C14.8362334 3.45745345 14.9191968 1.72876325 15 0 C15.99 0 16.98 0 18 0 C18.16250994 2.89809389 18.28107636 5.78704851 18.375 8.6875 C18.45041016 9.91243164 18.45041016 9.91243164 18.52734375 11.16210938 C18.67128834 17.08782824 18.67128834 17.08782824 16.76513672 19.67797852 C13.99190729 22.10834698 12.02759495 22.99571803 8.375 23.5625 C4.50335934 22.91722656 3.3493312 22.07220234 1 19 C-0.65497356 15.69005287 -0.10084335 12.00877 -0.0625 8.375 C-0.05798828 7.57320313 -0.05347656 6.77140625 -0.04882812 5.9453125 C-0.03703168 3.96350994 -0.01909605 1.98174567 0 0 Z " transform="translate(524,335)" style="fill: #e2e2e2;"/><path d="M0 0 C4.45144991 1.5483304 4.45144991 1.5483304 5.875 4 C6.63412409 10.83211679 6.63412409 10.83211679 4.25 14.5 C1.15359404 16.45562482 -0.52353135 16.60024477 -4.125 16 C-6.5 14.4375 -6.5 14.4375 -8.125 12 C-8.85572741 7.53444362 -8.63261596 5.7166343 -6 2 C-3.125 0 -3.125 0 0 0 Z " transform="translate(1039.125,338)" style="fill: #F5F6F7;"/><path d="M0 0 C0.99 0.66 1.98 1.32 3 2 C2.67 2.99 2.34 3.98 2 5 C-0.64 4.67 -3.28 4.34 -6 4 C-6 5.32 -6 6.64 -6 8 C-5.44570313 8.19335938 -4.89140625 8.38671875 -4.3203125 8.5859375 C-3.59585938 8.84632813 -2.87140625 9.10671875 -2.125 9.375 C-1.40570312 9.63023437 -0.68640625 9.88546875 0.0546875 10.1484375 C2 11 2 11 4 13 C4.66932271 19.13545817 4.66932271 19.13545817 2.5 21.9375 C-1.04071314 23.44230308 -4.20826829 23.60605548 -8 23 C-10.5 21.5 -10.5 21.5 -12 20 C-11.67 19.01 -11.34 18.02 -11 17 C-10.30132813 17.0721875 -9.60265625 17.144375 -8.8828125 17.21875 C-7.51769531 17.35796875 -7.51769531 17.35796875 -6.125 17.5 C-4.76761719 17.63921875 -4.76761719 17.63921875 -3.3828125 17.78125 C-1.06686789 18.03047295 -1.06686789 18.03047295 1 18 C0.34176479 14.89377691 0.34176479 14.89377691 -1.99609375 13.90234375 C-2.80175781 13.58394531 -3.60742188 13.26554687 -4.4375 12.9375 C-7.24933055 11.81367045 -8.8372207 11.1627793 -11 9 C-11.32339354 5.96010077 -11.45670212 3.85631647 -10 1.125 C-6.85103686 -0.64629177 -3.52961671 -0.54794453 0 0 Z " transform="translate(765,335)" style="fill: #e7e7e7;"/><path d="M0 0 C0.99 0.66 1.98 1.32 3 2 C2.67 2.99 2.34 3.98 2 5 C-0.64 4.67 -3.28 4.34 -6 4 C-6.33 5.32 -6.66 6.64 -7 8 C-5.6696875 8.12375 -5.6696875 8.12375 -4.3125 8.25 C-0.46460517 9.12122147 1.33369668 10.09843462 4 13 C4.68551032 16.65605504 4.48491197 18.2629338 2.4375 21.375 C-0.9265265 23.61768434 -3.02617986 23.488013 -7 23 C-9.9375 21.5 -9.9375 21.5 -12 20 C-11.67 19.01 -11.34 18.02 -11 17 C-10.30132813 17.0721875 -9.60265625 17.144375 -8.8828125 17.21875 C-7.51769531 17.35796875 -7.51769531 17.35796875 -6.125 17.5 C-4.76761719 17.63921875 -4.76761719 17.63921875 -3.3828125 17.78125 C-1.06686789 18.03047295 -1.06686789 18.03047295 1 18 C0.34176479 14.89377691 0.34176479 14.89377691 -1.99609375 13.90234375 C-2.80175781 13.58394531 -3.60742188 13.26554687 -4.4375 12.9375 C-7.24933055 11.81367045 -8.8372207 11.1627793 -11 9 C-11.375 6.0625 -11.375 6.0625 -11 3 C-7.92792827 -0.68648607 -4.54868482 -0.4135168 0 0 Z " transform="translate(1115,335)" style="fill: #e7e7e7;"/><path d="M0 0 C2.5 1 2.5 1 4 2 C4 2.99 4 3.98 4 5 C3.32453125 4.88140625 2.6490625 4.7628125 1.953125 4.640625 C-3.56531892 3.70629703 -3.56531892 3.70629703 -8.625 5.5625 C-10.38375685 8.68029623 -10.51512407 10.46772065 -10 14 C-9.02896212 16.46186579 -9.02896212 16.46186579 -7 18 C-3.4516955 18.3774792 -0.40249424 18.04692131 3 17 C3 18.32 3 19.64 3 21 C-0.65851291 23.34144827 -3.72830036 23.44965259 -8 23 C-11.40850414 20.87915298 -13.81386655 18.8818913 -15 15 C-15.7557317 8.30637636 -15.7557317 8.30637636 -13.94921875 5.18359375 C-9.74378232 0.03534561 -6.43832954 -0.54713077 0 0 Z " transform="translate(829,335)" style="fill: #ececec;"/><path d="M0 0 C5.28 0 10.56 0 16 0 C16 1.32 16 2.64 16 4 C12.04 4 8.08 4 4 4 C4 5.98 4 7.96 4 10 C7.63 10 11.26 10 15 10 C15 10.99 15 11.98 15 13 C11.37 13 7.74 13 4 13 C4 16.3 4 19.6 4 23 C2.68 23 1.36 23 0 23 C0 15.41 0 7.82 0 0 Z " transform="translate(888,335)" style="fill: #f1f1f1;"/><path d="M0 0 C0 18.15 0 36.3 0 55 C-1.65 54.67 -3.3 54.34 -5 54 C-4.01 53.505 -4.01 53.505 -3 53 C-3.00444122 52.36550934 -3.00888245 51.73101868 -3.01345825 51.07730103 C-3.0576008 44.49166102 -3.08782852 37.90606283 -3.10986328 31.3203125 C-3.11993983 28.86033421 -3.13360131 26.40036794 -3.15087891 23.94042969 C-3.17505461 20.41077715 -3.1864664 16.88128253 -3.1953125 13.3515625 C-3.20563507 12.24632233 -3.21595764 11.14108215 -3.22659302 10.00234985 C-3.22681961 8.47098892 -3.22681961 8.47098892 -3.22705078 6.90869141 C-3.231492 6.00712311 -3.23593323 5.10555481 -3.24050903 4.17666626 C-3.00832384 2.0753328 -2.61410135 0 0 0 Z " transform="translate(1147,221)" style="fill: #F05E10;"/><path d="M0 0 C1.89510699 -0.08160748 3.79124504 -0.13946459 5.6875 -0.1875 C6.74324219 -0.22230469 7.79898438 -0.25710938 8.88671875 -0.29296875 C12.42792969 0.04026942 14.24774547 0.76096295 17 3 C17.82903748 5.70528021 17.55212051 8.23939744 17 11 C15.5 13 15.5 13 14 14 C15.19899698 17.0831351 16.47700477 20.06279492 18 23 C15.8125 23.5 15.8125 23.5 13 23 C11.765625 21.25390625 11.765625 21.25390625 10.5625 19.0625 C8.62189322 15.43727395 8.62189322 15.43727395 4.6875 14 C3.800625 14 2.91375 14 2 14 C2 16.64 2 19.28 2 22 C1.67 22 1.34 22 1 22 C1.01740234 21.12601562 1.01740234 21.12601562 1.03515625 20.234375 C1.10993846 13.43987745 0.65055041 6.76107745 0 0 Z M2 2 C2 5.3 2 8.6 2 12 C6.50901363 12.17957899 6.50901363 12.17957899 11 12 C11.66 11.34 12.32 10.68 13 10 C13.02375926 8.0068433 13.02375926 8.0068433 12.625 5.875 C12.41875 4.59625 12.2125 3.3175 12 2 C8.7 2 5.4 2 2 2 Z " transform="translate(705,335)" style="fill: #e9e9e9;"/><path d="M0 0 C2.31 0.33 4.62 0.66 7 1 C7 1.66 7 2.32 7 3 C8.65 3 10.3 3 12 3 C12.33 2.01 12.66 1.02 13 0 C16 1 16 1 17.25 2.8125 C18.18444471 5.53796373 18.26203638 6.39704997 17 9 C15.09707771 10.83966725 13.10902733 12.38457481 11 14 C10.34 13.67 9.68 13.34 9 13 C8.67 13.66 8.34 14.32 8 15 C6.84372186 13.44521347 5.7003781 11.88080281 4.5625 10.3125 C3.92441406 9.44238281 3.28632812 8.57226562 2.62890625 7.67578125 C1.01028351 5.01689258 0.3916038 3.06112831 0 0 Z " transform="translate(905,251)" style="fill: #dbdbdb;"/><path d="M0 0 C7.28358209 -0.35820896 7.28358209 -0.35820896 10 1 C11.63278358 4.26556715 11.6227188 7.48305406 11 11 C9.4375 13.5 9.4375 13.5 7 15 C4.69 15 2.38 15 0 15 C0 10.05 0 5.1 0 0 Z " transform="translate(586,339)" style="fill: #F9F9FA;"/><path d="M0 0 C5.94 0 11.88 0 18 0 C18 1.32 18 2.64 18 4 C15.69 4 13.38 4 11 4 C11 10.27 11 16.54 11 23 C9.68 23 8.36 23 7 23 C7 16.73 7 10.46 7 4 C4.69 4 2.38 4 0 4 C0 2.68 0 1.36 0 0 Z " transform="translate(681,335)" style="fill: #eaeaea;"/><path d="M0 0 C5.94 0 11.88 0 18 0 C17.67 1.32 17.34 2.64 17 4 C15.02 4 13.04 4 11 4 C11 10.27 11 16.54 11 23 C9.68 23 8.36 23 7 23 C7 16.73 7 10.46 7 4 C5.02 4 3.04 4 1 4 C0.67 2.68 0.34 1.36 0 0 Z " transform="translate(908,335)" style="fill: #ececec;"/><path d="M0 0 C0.33 0.66 0.66 1.32 1 2 C1.66 2 2.32 2 3 2 C3 2.66 3 3.32 3 4 C3.66 4 4.32 4 5 4 C4.67 4.66 4.34 5.32 4 6 C2.35 6 0.7 6 -1 6 C-1 6.66 -1 7.32 -1 8 C-1.66 8 -2.32 8 -3 8 C-3 9.32 -3 10.64 -3 12 C-1.68 12.66 -0.36 13.32 1 14 C-5.27228932 18.16406681 -10.54218888 20.79712724 -18 22 C-16.56438314 18.81293058 -14.79733671 16.37830895 -12.5 13.75 C-11.8915625 13.04359375 -11.283125 12.3371875 -10.65625 11.609375 C-9 10 -9 10 -7 10 C-6.773125 9.46375 -6.54625 8.9275 -6.3125 8.375 C-4.56617944 5.21499137 -2.3597151 2.7323017 0 0 Z " transform="translate(863,256)" style="fill: #F66216;"/><path d="M0 0 C5.94 0 11.88 0 18 0 C17.67 1.32 17.34 2.64 17 4 C15.02 4 13.04 4 11 4 C11 9.94 11 15.88 11 22 C9.68 22.33 8.36 22.66 7 23 C7 16.4 7 9.8 7 3 C4.69 3 2.38 3 0 3 C0 2.01 0 1.02 0 0 Z " transform="translate(774,335)" style="fill: #e9e9e9;"/><path d="M0 0 C1.32 0 2.64 0 4 0 C4 6.27 4 12.54 4 19 C7.63 19 11.26 19 15 19 C15 20.32 15 21.64 15 23 C10.05 23 5.1 23 0 23 C0 15.41 0 7.82 0 0 Z " transform="translate(561,335)" style="fill: #f3f3f3;"/><path d="M0 0 C3.4087928 1.3984791 4.87393835 2.85006933 6.75 6 C7.17796875 6.70125 7.6059375 7.4025 8.046875 8.125 C9 10 9 10 9 12 C3.72 12 -1.56 12 -7 12 C-7.66 10.35 -8.32 8.7 -9 7 C-5.91190305 5.23537317 -4.76687864 5 -1 5 C-1.33 4.01 -1.66 3.02 -2 2 C-1.34 2 -0.68 2 0 2 C0 1.34 0 0.68 0 0 Z " transform="translate(927,266)" style="fill: #e3e3e3;"/><path d="M0 0 C1.32 0 2.64 0 4 0 C4.33 2.31 4.66 4.62 5 7 C3.68 6.67 2.36 6.34 1 6 C0.34 8.64 -0.32 11.28 -1 14 C0.98 14 2.96 14 5 14 C4.67 14.66 4.34 15.32 4 16 C2.865625 16.268125 1.73125 16.53625 0.5625 16.8125 C-3.17259468 17.60878998 -3.17259468 17.60878998 -4.4375 20.625 C-4.623125 21.40875 -4.80875 22.1925 -5 23 C-6.32 23 -7.64 23 -9 23 C-6.54234965 15.08090444 -3.33181427 7.58014704 0 0 Z " transform="translate(870,335)" style="fill: #e1e1e1;"/><path d="M0 0 C4.12073601 1.030184 4.72377331 1.36902769 7.25 4.4375 C8.03117188 5.36369141 8.03117188 5.36369141 8.828125 6.30859375 C10 8 10 8 10 10 C8.1875 10.6875 8.1875 10.6875 6 11 C5.01 10.01 4.02 9.02 3 8 C3 12.95 3 17.9 3 23 C2.01 23 1.02 23 0 23 C0 15.41 0 7.82 0 0 Z " transform="translate(620,335)" style="fill: #e7e7e7;"/><path d="M0 0 C2.5625 2 2.5625 2 4 4 C3.01 4 2.02 4 1 4 C1 3.34 1 2.68 1 2 C-0.32 1.67 -1.64 1.34 -3 1 C-3 1.99 -3 2.98 -3 4 C-3.66 4 -4.32 4 -5 4 C-5 3.01 -5 2.02 -5 1 C-5.99 1.495 -5.99 1.495 -7 2 C-7 3.32 -7 4.64 -7 6 C-7.66 6 -8.32 6 -9 6 C-9 6.66 -9 7.32 -9 8 C-10.65 8 -12.3 8 -14 8 C-14.33 9.98 -14.66 11.96 -15 14 C-13.68 14 -12.36 14 -11 14 C-11 14.66 -11 15.32 -11 16 C-10.34 16 -9.68 16 -9 16 C-9 16.66 -9 17.32 -9 18 C-10.32 18 -11.64 18 -13 18 C-13.33 18.66 -13.66 19.32 -14 20 C-16.98332082 15.89793387 -17.78240146 13.04214275 -17 8 C-12.50835535 1.07709815 -8.21691767 -1.12380579 0 0 Z " transform="translate(1219,140)" style="fill: #F46219;"/><path d="M0 0 C2.52775351 3.79163027 2.22443035 6.80874031 2.125 11.1875 C2.11597656 11.93708984 2.10695313 12.68667969 2.09765625 13.45898438 C2.07412578 15.30612654 2.03825561 17.15310412 2 19 C6.95 19 11.9 19 17 19 C16.67 20.32 16.34 21.64 16 23 C13.52076199 23.02685095 11.0418116 23.04676547 8.5625 23.0625 C7.85544922 23.07087891 7.14839844 23.07925781 6.41992188 23.08789062 C4.61306441 23.09653588 2.80612397 23.05220011 1 23 C0 22 0 22 -0.11352539 19.86694336 C-0.10828857 18.95050049 -0.10305176 18.03405762 -0.09765625 17.08984375 C-0.09443359 16.10048828 -0.09121094 15.11113281 -0.08789062 14.09179688 C-0.07951172 13.05087891 -0.07113281 12.00996094 -0.0625 10.9375 C-0.05798828 9.89271484 -0.05347656 8.84792969 -0.04882812 7.77148438 C-0.03699913 5.1809334 -0.02051689 2.59049441 0 0 Z " transform="translate(1082,335)" style="fill: #f4f4f4;"/><path d="M0 0 C2.97 0 5.94 0 9 0 C9 3.3 9 6.6 9 10 C4.47351478 12.64964989 1.24601514 13.50442453 -4 13 C-4.66 12.34 -5.32 11.68 -6 11 C-3.09907498 9.06604999 -2.10325263 8.69868059 1.1875 8.375 C2.445625 8.25125 3.70375 8.1275 5 8 C5 6.35 5 4.7 5 3 C3.35 3 1.7 3 0 3 C0 2.01 0 1.02 0 0 Z " transform="translate(978,345)" style="fill: #e7e7e7;"/><path d="M0 0 C1.32 0 2.64 0 4 0 C4 7.59 4 15.18 4 23 C2.68 23 1.36 23 0 23 C0 15.41 0 7.82 0 0 Z " transform="translate(608,335)" style="fill: #ececec;"/><path d="M0 0 C1.32 0 2.64 0 4 0 C4 7.59 4 15.18 4 23 C2.68 22.67 1.36 22.34 0 22 C0 14.74 0 7.48 0 0 Z " transform="translate(931,335)" style="fill: #ededed;"/><path d="M0 0 C0 21.78 0 43.56 0 66 C-0.33 66 -0.66 66 -1 66 C-1.15422928 58.67187127 -1.30240595 51.34364612 -1.4429636 44.01524162 C-1.50842555 40.61198118 -1.57593239 37.20878747 -1.64819336 33.80566406 C-1.73127203 29.88878402 -1.8053111 25.97175766 -1.87890625 22.0546875 C-1.90594131 20.83884979 -1.93297638 19.62301208 -1.96083069 18.37033081 C-1.98092697 17.22960114 -2.00102325 16.08887146 -2.02172852 14.91357422 C-2.04171402 13.91429901 -2.06169952 12.9150238 -2.08229065 11.88546753 C-2 9 -2 9 -1 3 C-5.95 2.67 -10.9 2.34 -16 2 C-16 1.67 -16 1.34 -16 1 C-14.45876053 0.82942804 -12.91697919 0.66375 -11.375 0.5 C-10.51648438 0.4071875 -9.65796875 0.314375 -8.7734375 0.21875 C-5.85710662 -0.01127046 -2.92538805 0 0 0 Z " transform="translate(547,181)" style="fill: #d9d9d9;"/><path d="M0 0 C2.475 0.495 2.475 0.495 5 1 C5.33 2.65 5.66 4.3 6 6 C5.01 6.33 4.02 6.66 3 7 C3 12.28 3 17.56 3 23 C2.01 23 1.02 23 0 23 C0 15.41 0 7.82 0 0 Z " transform="translate(1055,335)" style="fill: #e4e4e4;"/><path d="M0 0 C7.76785714 -0.66964286 7.76785714 -0.66964286 11.4375 2.375 C14.62776345 5.64307476 15.16374835 7.07241528 15.25 11.5 C15.27578125 12.2940625 15.3015625 13.088125 15.328125 13.90625 C15.21984375 14.5971875 15.1115625 15.288125 15 16 C14.01 16.66 13.02 17.32 12 18 C11.98582031 17.32453125 11.97164062 16.6490625 11.95703125 15.953125 C11.69366048 10.23775781 11.69366048 10.23775781 8.9375 5.375 C5.00361256 3.53360588 2.31426647 3.70750736 -2 4 C-1.34 2.68 -0.68 1.36 0 0 Z " transform="translate(1034,335)" style="fill: #e3e3e3;"/><path d="M0 0 C4.95 0 9.9 0 15 0 C15 0.99 15 1.98 15 3 C10.71 3 6.42 3 2 3 C2 9.27 2 15.54 2 22 C1.34 22 0.68 22 0 22 C0 14.74 0 7.48 0 0 Z " transform="translate(889,335)" style="fill: #dcdcdc;"/><path d="M0 0 C1.03447266 0.68835938 1.03447266 0.68835938 2.08984375 1.390625 C7.26131915 4.76733596 12.3136654 7.8155515 18.02734375 10.17578125 C20.06952003 11.02904698 22.03072662 11.99113287 24 13 C22.68 13 21.36 13 20 13 C19.67 13.66 19.34 14.32 19 15 C17.35 14.34 15.7 13.68 14 13 C14 12.34 14 11.68 14 11 C12.02 11 10.04 11 8 11 C8 10.34 8 9.68 8 9 C6.02 8.34 4.04 7.68 2 7 C2 6.34 2 5.68 2 5 C1.34 5 0.68 5 0 5 C0 3.35 0 1.7 0 0 Z " transform="translate(974,247)" style="fill: #F56317;"/><path d="M0 0 C1.32 0 2.64 0 4 0 C4 7.59 4 15.18 4 23 C3.01 23 2.02 23 1 23 C0.67 15.41 0.34 7.82 0 0 Z " transform="translate(1072,335)" style="fill: #e6e6e6;"/><path d="M0 0 C0.495 0.33 0.99 0.66 1.5 1 C1.5 1.99 1.5 2.98 1.5 4 C0.83613281 3.86980469 0.17226563 3.73960937 -0.51171875 3.60546875 C-6.37061377 2.60315117 -6.37061377 2.60315117 -11.5625 5.125 C-13.44449017 7.91763057 -14.21523995 9.67779943 -14.5 13 C-14.83 13 -15.16 13 -15.5 13 C-16.22920235 9.95723746 -16.69386399 7.13326123 -16.5 4 C-12.01851716 -1.630581 -6.84185839 -2.73674336 0 0 Z " transform="translate(831.5,336)" style="fill: #e3e3e3;"/><path d="M0 0 C3.96 0 7.92 0 12 0 C12 0.33 12 0.66 12 1 C8.7 1.33 5.4 1.66 2 2 C2 4.31 2 6.62 2 9 C5.63 9 9.26 9 13 9 C13 9.66 13 10.32 13 11 C9.7 11.33 6.4 11.66 3 12 C2.34 14.97 1.68 17.94 1 21 C0.67 21 0.34 21 0 21 C0 14.07 0 7.14 0 0 Z " transform="translate(501,336)" style="fill: #d7d7d7;"/><path d="M0 0 C3.96 0 7.92 0 12 0 C11.67 0.66 11.34 1.32 11 2 C8.35139573 2.59355614 5.70802678 2.74209269 3 3 C2.67 5.64 2.34 8.28 2 11 C4.64 11 7.28 11 10 11 C10 11.33 10 11.66 10 12 C7.36 12 4.72 12 2 12 C2 14.97 2 17.94 2 21 C1.34 21 0.68 21 0 21 C0 14.07 0 7.14 0 0 Z " transform="translate(840,336)" style="fill: #dadada;"/><path d="M0 0 C0.99 0 1.98 0 3 0 C3 7.59 3 15.18 3 23 C2.01 23 1.02 23 0 23 C0 15.41 0 7.82 0 0 Z " transform="translate(550,335)" style="fill: #dcdcdc;"/><path d="M0 0 C1.98 0 3.96 0 6 0 C6 0.66 6 1.32 6 2 C7.32 2 8.64 2 10 2 C10 2.66 10 3.32 10 4 C11.65 3.67 13.3 3.34 15 3 C16.98 5.31 18.96 7.62 21 10 C16.04964336 9.44489088 12.06788791 7.82408829 7.6875 5.5625 C7.05521484 5.24990234 6.42292969 4.93730469 5.77148438 4.61523438 C1.13144405 2.2628881 1.13144405 2.2628881 0 0 Z " transform="translate(884,268)" style="fill: #F1712B;"/><path d="M0 0 C7.59 0 15.18 0 23 0 C28 9 28 9 28 11 C24.07831486 9.69277162 22.80929244 7.61858487 21 4 C18.67843403 3.59270772 16.3431213 3.25561323 14 3 C14 2.34 14 1.68 14 1 C9.38 1.33 4.76 1.66 0 2 C0 1.34 0 0.68 0 0 Z " transform="translate(370,141)" style="fill: #f1f1f1;"/><path d="M0 0 C1.47906892 -0.02689216 2.95827483 -0.04634621 4.4375 -0.0625 C5.26121094 -0.07410156 6.08492187 -0.08570313 6.93359375 -0.09765625 C9 0 9 0 10 1 C10.125 3.5 10.125 3.5 10 6 C9 7 9 7 6.93359375 7.09765625 C6.10988281 7.08605469 5.28617188 7.07445312 4.4375 7.0625 C3.61121094 7.05347656 2.78492188 7.04445313 1.93359375 7.03515625 C1.29550781 7.02355469 0.65742187 7.01195312 0 7 C0 4.69 0 2.38 0 0 Z " transform="translate(708,339)" style="fill: #F1F2F4;"/><path d="M0 0 C2.97 0 5.94 0 9 0 C9.625 2.375 9.625 2.375 10 5 C8 7 8 7 6.0546875 7.1953125 C4.03645833 7.13020833 2.01822917 7.06510417 0 7 C0 4.69 0 2.38 0 0 Z " transform="translate(843,339)" style="fill: #F8F8F9;"/><path d="M0 0 C0.76183594 0.00386719 1.52367187 0.00773437 2.30859375 0.01171875 C4.75779127 0.3385614 6.42950917 1.09295399 8.5625 2.3125 C8.2325 3.3025 7.9025 4.2925 7.5625 5.3125 C6.67498047 5.13460938 6.67498047 5.13460938 5.76953125 4.953125 C0.42536073 4.00077643 0.42536073 4.00077643 -4.375 6.25 C-5.055625 6.930625 -5.73625 7.61125 -6.4375 8.3125 C-7.0975 8.3125 -7.7575 8.3125 -8.4375 8.3125 C-7.67235619 2.65043584 -5.98343844 -0.1311715 0 0 Z " transform="translate(655.4375,334.6875)" style="fill: #e4e4e4;"/><path d="M0 0 C0.99 0 1.98 0 3 0 C3.02895225 3.29164829 3.0467823 6.58326399 3.0625 9.875 C3.07087891 10.81214844 3.07925781 11.74929688 3.08789062 12.71484375 C3.09111328 13.61074219 3.09433594 14.50664062 3.09765625 15.4296875 C3.10289307 16.25710449 3.10812988 17.08452148 3.11352539 17.93701172 C3 20 3 20 2 22 C1.34 22 0.68 22 0 22 C0 14.74 0 7.48 0 0 Z " transform="translate(561,335)" style="fill: #dbdbdb;"/><path d="M0 0 C4.95 0 9.9 0 15 0 C15 0.99 15 1.98 15 3 C10.71 3 6.42 3 2 3 C2 8.28 2 13.56 2 19 C1.67 19 1.34 19 1 19 C0.67 12.73 0.34 6.46 0 0 Z " transform="translate(1083,335)" style="fill: #dddddd;"/><path d="M0 0 C4.88757373 4.49128396 7.85930152 8.0922314 8.1875 14.875 C8.125625 15.90625 8.06375 16.9375 8 18 C7.34 18 6.68 18 6 18 C6 17.01 6 16.02 6 15 C5.34 15 4.68 15 4 15 C4 14.34 4 13.68 4 13 C3.34 13 2.68 13 2 13 C2.020625 12.05125 2.04125 11.1025 2.0625 10.125 C2.22551826 7.09333717 2.22551826 7.09333717 1 5 C1.33 4.34 1.66 3.68 2 3 C1.34 3 0.68 3 0 3 C0 2.01 0 1.02 0 0 Z " transform="translate(1052,217)" style="fill: #F4651E;"/><path d="M0 0 C0.66 0 1.32 0 2 0 C2.33 5.28 2.66 10.56 3 16 C5.97 16.33 8.94 16.66 12 17 C12 17.66 12 18.32 12 19 C8.04 19 4.08 19 0 19 C0 12.73 0 6.46 0 0 Z " transform="translate(583,338)" style="fill: #d9d9d9;"/><path d="M0 0 C0.99 0.33 1.98 0.66 3 1 C3 1.99 3 2.98 3 4 C3.99 4.33 4.98 4.66 6 5 C1.59913433 8.12319499 -2.79459302 9.03603575 -8 10 C-6.07712966 5.70621187 -3.37521131 3.22846299 0 0 Z " transform="translate(853,268)" style="fill: #F26A21;"/><path d="M0 0 C0.33 0 0.66 0 1 0 C1.16377739 8.02509216 1.03035965 14.81544584 -3 22 C-3.33 21.34 -3.66 20.68 -4 20 C-5.32 20 -6.64 20 -8 20 C-8 19.34 -8 18.68 -8 18 C-7.34 18 -6.68 18 -6 18 C-5.566875 16.63875 -5.566875 16.63875 -5.125 15.25 C-4.23468224 12.67797092 -3.28505587 10.38653234 -2 8 C-1.34 8 -0.68 8 0 8 C0 5.36 0 2.72 0 0 Z " transform="translate(1060,236)" style="fill: #F57028;"/><path d="M0 0 C1.17433594 0.01417969 2.34867188 0.02835938 3.55859375 0.04296875 C5.32396484 0.05263672 5.32396484 0.05263672 7.125 0.0625 C9.99609375 0.23046875 9.99609375 0.23046875 10.99609375 1.23046875 C11.08260986 2.64616998 11.10314279 4.06606375 11.09375 5.484375 C11.09052734 6.33837891 11.08730469 7.19238281 11.08398438 8.07226562 C11.07560547 8.97009766 11.06722656 9.86792969 11.05859375 10.79296875 C11.05408203 11.69466797 11.04957031 12.59636719 11.04492188 13.52539062 C11.033096 15.76048189 11.01661595 17.99544312 10.99609375 20.23046875 C10.66609375 20.23046875 10.33609375 20.23046875 9.99609375 20.23046875 C9.99609375 15.61046875 9.99609375 10.99046875 9.99609375 6.23046875 C9.00609375 6.23046875 8.01609375 6.23046875 6.99609375 6.23046875 C6.99609375 4.91046875 6.99609375 3.59046875 6.99609375 2.23046875 C3.03609375 2.23046875 -0.92390625 2.23046875 -5.00390625 2.23046875 C-3.00390625 0.23046875 -3.00390625 0.23046875 0 0 Z " transform="translate(1177.00390625,177.76953125)" style="fill: #F27B35;"/><path d="M0 0 C2.97 0 5.94 0 9 0 C9.38218767 1.65614657 9.71395102 3.32457024 10 5 C9 6 9 6 6.93359375 6.09765625 C6.10988281 6.08605469 5.28617187 6.07445312 4.4375 6.0625 C3.61121094 6.05347656 2.78492188 6.04445313 1.93359375 6.03515625 C1.29550781 6.02355469 0.65742188 6.01195312 0 6 C0 4.02 0 2.04 0 0 Z " transform="translate(504,348)" style="fill: #F4F4F5;"/><path d="M0 0 C0.33 0 0.66 0 1 0 C1.33 3.63 1.66 7.26 2 11 C-2.51350747 14.52273754 -5.28341664 15.45732667 -11 15 C-11.33 14.34 -11.66 13.68 -12 13 C-11.01 13 -10.02 13 -9 13 C-9 12.34 -9 11.68 -9 11 C-6.69 10.34 -4.38 9.68 -2 9 C-1.34 6.03 -0.68 3.06 0 0 Z " transform="translate(1045,343)" style="fill: #ebebeb;"/><path d="M0 0 C1.81274414 0.01353516 1.81274414 0.01353516 3.66210938 0.02734375 C6.62911278 0.05079832 9.59570143 0.08362206 12.5625 0.125 C12.5625 0.455 12.5625 0.785 12.5625 1.125 C6.45470781 2.09964769 0.40767173 2.45080598 -5.765625 2.73046875 C-10.38264946 2.95817914 -14.87172219 3.39641843 -19.4375 4.125 C-19.7675 3.465 -20.0975 2.805 -20.4375 2.125 C-13.69161569 -0.39108607 -7.1282732 -0.10111026 0 0 Z " transform="translate(658.4375,179.875)" style="fill: #e2e2e2;"/><path d="M0 0 C0.66 0.33 1.32 0.66 2 1 C1.1875 3.4375 1.1875 3.4375 0 6 C-0.99 6.33 -1.98 6.66 -3 7 C-3.33 7.99 -3.66 8.98 -4 10 C-2.68 10 -1.36 10 0 10 C0 11.32 0 12.64 0 14 C-1.65 14 -3.3 14 -5 14 C-4.67 15.32 -4.34 16.64 -4 18 C-4.66 17.67 -5.32 17.34 -6 17 C-6.92017937 7.42331839 -6.92017937 7.42331839 -4.6640625 3.93359375 C-3 2.3125 -3 2.3125 0 0 Z " transform="translate(1086,140)" style="fill: #FA6513;"/><path d="M0 0 C1.11083984 1.74316406 1.11083984 1.74316406 2 4 C1.40087891 6.01464844 1.40087891 6.01464844 0.2265625 8.109375 C-0.1859375 8.86347656 -0.5984375 9.61757812 -1.0234375 10.39453125 C-1.46945312 11.17183594 -1.91546875 11.94914063 -2.375 12.75 C-2.81328125 13.54277344 -3.2515625 14.33554688 -3.703125 15.15234375 C-4.78807564 17.10997208 -5.88718624 19.05811781 -7 21 C-7.33 21 -7.66 21 -8 21 C-7.505 16.545 -7.505 16.545 -7 12 C-5.68 11.67 -4.36 11.34 -3 11 C-2.67 8.03 -2.34 5.06 -2 2 C-1.34 2 -0.68 2 0 2 C0 1.34 0 0.68 0 0 Z " transform="translate(825,185)" style="fill: #e1e1e1;"/><path d="M0 0 C1.32 0 2.64 0 4 0 C4.33 2.31 4.66 4.62 5 7 C3.68 6.67 2.36 6.34 1 6 C0.67 7.65 0.34 9.3 0 11 C-1.32 11 -2.64 11 -4 11 C-3.52269162 9.5410574 -3.04308958 8.08286504 -2.5625 6.625 C-2.29566406 5.81289063 -2.02882813 5.00078125 -1.75390625 4.1640625 C-1 2 -1 2 0 0 Z " transform="translate(870,335)" style="fill: #e8e8e8;"/><path d="M0 0 C2.97 0 5.94 0 9 0 C9 3.3 9 6.6 9 10 C8.01 10 7.02 10 6 10 C5.67 8.02 5.34 6.04 5 4 C3.35 3.67 1.7 3.34 0 3 C0 2.01 0 1.02 0 0 Z " transform="translate(656,345)" style="fill: #e5e5e5;"/><path d="M0 0 C2 0 2 0 4 2 C5.13163962 5.45778772 6 8.35258558 6 12 C5.34 12.66 4.68 13.32 4 14 C0.07260562 9.09075703 -0.43177893 6.26079448 0 0 Z " transform="translate(814,342)" style="fill: #eaeaea;"/><path d="M0 0 C5.94 0 11.88 0 18 0 C18 0.99 18 1.98 18 3 C12.06 3 6.12 3 0 3 C0 2.01 0 1.02 0 0 Z " transform="translate(774,335)" style="fill: #e5e5e5;"/><path d="M0 0 C0.66 0 1.32 0 2 0 C3.5078125 1.75 3.5078125 1.75 5.125 4 C5.66382813 4.7425 6.20265625 5.485 6.7578125 6.25 C7.16773438 6.8275 7.57765625 7.405 8 8 C5.36 8 2.72 8 0 8 C-0.33 7.34 -0.66 6.68 -1 6 C-1.99 5.67 -2.98 5.34 -4 5 C-3.34 4.01 -2.68 3.02 -2 2 C-1.34 2 -0.68 2 0 2 C0 1.34 0 0.68 0 0 Z " transform="translate(874,244)" style="fill: #F26B23;"/><path d="M0 0 C4.43090471 1.20842856 6.98112756 2.51668565 10 6 C8 8 8 8 4.875 8.125 C3.92625 8.08375 2.9775 8.0425 2 8 C2 6.68 2 5.36 2 4 C1.34 3.67 0.68 3.34 0 3 C0 2.01 0 1.02 0 0 Z " transform="translate(1036,206)" style="fill: #FA6711;"/><path d="M0 0 C0.99 0 1.98 0 3 0 C4.22975728 2.45951456 4.01468511 3.78256624 3.75 6.5 C3.68296875 7.2940625 3.6159375 8.088125 3.546875 8.90625 C3 11 3 11 0 13 C-1.06671952 9.79984144 -0.94845472 8.11455706 -0.5625 4.8125 C-0.46066406 3.91144531 -0.35882812 3.01039063 -0.25390625 2.08203125 C-0.17011719 1.39496094 -0.08632813 0.70789063 0 0 Z " transform="translate(598,341)" style="fill: #dbdbdb;"/><path d="M0 0 C2 0 2 0 3.54296875 1.42578125 C4.08566406 2.04839844 4.62835937 2.67101562 5.1875 3.3125 C5.73792969 3.92738281 6.28835938 4.54226563 6.85546875 5.17578125 C7.42201172 6.07876953 7.42201172 6.07876953 8 7 C7.67 7.99 7.34 8.98 7 10 C6.01 10 5.02 10 4 10 C4 9.34 4 8.68 4 8 C2.68 8 1.36 8 0 8 C0 5.36 0 2.72 0 0 Z " transform="translate(890,262)" style="fill: #F76814;"/><path d="M0 0 C2.64 0 5.28 0 8 0 C8.5625 1.9375 8.5625 1.9375 9 4 C8 5 8 5 6.15234375 5.09765625 C4.1015625 5.06510417 2.05078125 5.03255208 0 5 C0 3.35 0 1.7 0 0 Z " transform="translate(504,339)" style="fill: #F8F8F9;"/><path d="M0 0 C3 1 3 1 4 3 C4.13415472 5.6723621 4.04318541 8.32250488 4 11 C3.01 10.67 2.02 10.34 1 10 C1 9.34 1 8.68 1 8 C0.34 8 -0.32 8 -1 8 C-1.04241723 5.66705225 -1.04092937 3.33297433 -1 1 C-0.67 0.67 -0.34 0.34 0 0 Z " transform="translate(593,144)" style="fill: #e5e5e5;"/><path d="M0 0 C1.32 0 2.64 0 4 0 C4 1.32 4 2.64 4 4 C5.32 4 6.64 4 8 4 C8 4.66 8 5.32 8 6 C4.7 6 1.4 6 -2 6 C-2 6.66 -2 7.32 -2 8 C-2.66 8 -3.32 8 -4 8 C-3.67 6.68 -3.34 5.36 -3 4 C-2.01 4 -1.02 4 0 4 C0 2.68 0 1.36 0 0 Z " transform="translate(1086,142)" style="fill: #FE5C04;"/><path d="M0 0 C1.9375 0.8125 1.9375 0.8125 4 2 C4.33 2.99 4.66 3.98 5 5 C-1.6 5 -8.2 5 -15 5 C-15 4.67 -15 4.34 -15 4 C-11.37 4 -7.74 4 -4 4 C-4 3.34 -4 2.68 -4 2 C-2.68 2 -1.36 2 0 2 C0 1.34 0 0.68 0 0 Z " transform="translate(704,272)" style="fill: #dddddd;"/><path d="M0 0 C1.65 0 3.3 0 5 0 C2.87594923 5.4556837 0.72823857 10.81634671 -2 16 C-3.23642182 12.47906369 -2.73593563 10.36923056 -1.5625 6.875 C-0.38321802 3.50160537 -0.38321802 3.50160537 0 0 Z " transform="translate(472,219)" style="fill: #e0e0e0;"/><path d="M0 0 C0 2.31 0 4.62 0 7 C1.32 7 2.64 7 4 7 C4 7.66 4 8.32 4 9 C4.66 9 5.32 9 6 9 C6 9.66 6 10.32 6 11 C4.68 11 3.36 11 2 11 C1.67 11.66 1.34 12.32 1 13 C-1.97663853 8.90712202 -2.38606152 6.01879978 -2 1 C-1 0 -1 0 0 0 Z " transform="translate(1204,147)" style="fill: #F06F31;"/><path d="M0 0 C0.99 0 1.98 0 3 0 C5.22948981 2.95079533 6.82859875 5.48579624 8 9 C5.75 9.375 5.75 9.375 3 9 C0.625 6.1875 0.625 6.1875 -1 3 C-0.67 2.01 -0.34 1.02 0 0 Z " transform="translate(715,349)" style="fill: #ececec;"/><path d="M0 0 C3.7952131 1.49097658 5.61042731 3.75700849 8 7 C7.34 8.32 6.68 9.64 6 11 C3.66475218 8.74259377 1.81294927 6.7194239 0 4 C0 2.68 0 1.36 0 0 Z " transform="translate(951,345)" style="fill: #dfdfdf;"/><path d="M0 0 C0.99 0 1.98 0 3 0 C3 1.98 3 3.96 3 6 C2.34 6 1.68 6 1 6 C0.67 7.65 0.34 9.3 0 11 C-2 9 -2 9 -2.25 6.0625 C-2 3 -2 3 0 0 Z " transform="translate(575,143)" style="fill: #e1e1e1;"/><path d="M0 0 C1.9375 0.5625 1.9375 0.5625 4 2 C4.75 5.625 4.75 5.625 5 9 C4.01 9.495 4.01 9.495 3 10 C1 8 1 8 0 4 C-2.97 3.67 -5.94 3.34 -9 3 C-9 2.67 -9 2.34 -9 2 C-6.94921875 1.77213542 -4.8984375 1.54427083 -2.84765625 1.31640625 C-0.98859771 1.18113386 -0.98859771 1.18113386 0 0 Z " transform="translate(852,336)" style="fill: #efefef;"/><path d="M0 0 C-0.66 1.32 -1.32 2.64 -2 4 C-2.99 3.67 -3.98 3.34 -5 3 C-6.99673484 2.64763503 -8.99650739 2.31165441 -11 2 C-11 4.64 -11 7.28 -11 10 C-11.33 10 -11.66 10 -12 10 C-12.02689216 8.52093108 -12.04634621 7.04172517 -12.0625 5.5625 C-12.07410156 4.73878906 -12.08570313 3.91507812 -12.09765625 3.06640625 C-12 1 -12 1 -11 0 C-9.52887696 -0.25910191 -8.04698431 -0.45873776 -6.5625 -0.625 C-5.35787109 -0.76808594 -5.35787109 -0.76808594 -4.12890625 -0.9140625 C-2 -1 -2 -1 0 0 Z " transform="translate(718,347)" style="fill: #d9d9d9;"/><path d="M0 0 C4.62 1.65 9.24 3.3 14 5 C12.68 5.33 11.36 5.66 10 6 C9.67 6.66 9.34 7.32 9 8 C6.525 7.01 6.525 7.01 4 6 C4 5.34 4 4.68 4 4 C2.68 4 1.36 4 0 4 C0 2.68 0 1.36 0 0 Z " transform="translate(984,254)" style="fill: #F46816;"/><path d="M0 0 C0.33 0 0.66 0 1 0 C1.92092281 4.65537356 2.12205997 9.14685433 2.0625 13.875 C2.05798828 14.56335938 2.05347656 15.25171875 2.04882812 15.9609375 C2.03716336 17.64066335 2.01923271 19.32034375 2 21 C1.67 21 1.34 21 1 21 C0.96132812 19.62714844 0.96132812 19.62714844 0.921875 18.2265625 C0.86515625 17.03804688 0.8084375 15.84953125 0.75 14.625 C0.70359375 13.44164062 0.6571875 12.25828125 0.609375 11.0390625 C0.34351201 7.88708247 0.34351201 7.88708247 -2.046875 6.5859375 C-2.69140625 6.39257812 -3.3359375 6.19921875 -4 6 C-2.69593116 3.98079663 -1.36176581 1.98075027 0 0 Z " transform="translate(1071,336)" style="fill: #f3f3f3;"/><path d="M0 0 C3.96 0 7.92 0 12 0 C12.33 0.66 12.66 1.32 13 2 C9.37 2 5.74 2 2 2 C2 5.3 2 8.6 2 12 C1.67 12 1.34 12 1 12 C0.67 8.04 0.34 4.08 0 0 Z " transform="translate(705,335)" style="fill: #e2e2e2;"/><path d="M0 0 C1.32 0.33 2.64 0.66 4 1 C3.67 2.32 3.34 3.64 3 5 C2.34 5 1.68 5 1 5 C1 10.28 1 15.56 1 21 C0.67 21 0.34 21 0 21 C0 14.07 0 7.14 0 0 Z " transform="translate(621,336)" style="fill: #d9d9d9;"/><path d="M0 0 C6.625 -0.25 6.625 -0.25 10 2 C9.67 2.99 9.34 3.98 9 5 C6.03 4.67 3.06 4.34 0 4 C0 2.68 0 1.36 0 0 Z " transform="translate(1108,335)" style="fill: #e3e3e3;"/><path d="M0 0 C0 0.66 0 1.32 0 2 C3.465 3.485 3.465 3.485 7 5 C3.45332822 6.25127906 1.27746562 5.72285053 -2.25 4.5625 C-3.14203125 4.27503906 -4.0340625 3.98757813 -4.953125 3.69140625 C-5.62859375 3.46324219 -6.3040625 3.23507812 -7 3 C-7 2.34 -7 1.68 -7 1 C-4.53721199 -0.231394 -2.7204945 -0.07159196 0 0 Z " transform="translate(989,272)" style="fill: #ED6B29;"/><path d="M0 0 C0.66 0 1.32 0 2 0 C2 0.66 2 1.32 2 2 C2.66 2 3.32 2 4 2 C4 1.34 4 0.68 4 0 C4.66 0 5.32 0 6 0 C4.5682479 5.01113235 2.01554307 6.94469549 -2 10 C-2 8.68 -2 7.36 -2 6 C-1.34 6 -0.68 6 0 6 C0 4.02 0 2.04 0 0 Z " transform="translate(1050,258)" style="fill: #F16821;"/><path d="M0 0 C0.66 0 1.32 0 2 0 C2.04898437 0.99902344 2.09796875 1.99804688 2.1484375 3.02734375 C2.22320313 4.31769531 2.29796875 5.60804688 2.375 6.9375 C2.44460938 8.22527344 2.51421875 9.51304687 2.5859375 10.83984375 C2.72257812 11.88269531 2.85921875 12.92554688 3 14 C3.66 14.33 4.32 14.66 5 15 C4.01 15.33 3.02 15.66 2 16 C2 14.68 2 13.36 2 12 C1.34 12 0.68 12 0 12 C0 8.04 0 4.08 0 0 Z " transform="translate(1144,182)" style="fill: #F16112;"/><path d="M0 0 C0.66 0 1.32 0 2 0 C3.25664978 2.90600261 4 4.79604584 4 8 C2.02 8 0.04 8 -2 8 C-1.125 2.25 -1.125 2.25 0 0 Z " transform="translate(871,341)" style="fill: #EBECEE;"/><path d="M0 0 C3.63 0 7.26 0 11 0 C10.67 0.99 10.34 1.98 10 3 C12.97 3.495 12.97 3.495 16 4 C16 4.66 16 5.32 16 6 C13.23723823 5.47731534 10.6739124 4.89130413 8 4 C8 3.34 8 2.68 8 2 C7.05125 2.04125 6.1025 2.0825 5.125 2.125 C2 2 2 2 0 0 Z " transform="translate(1016,220)" style="fill: #F17935;"/><path d="M0 0 C1.98 0.495 1.98 0.495 4 1 C4.125 3.875 4.125 3.875 4 7 C2 9 2 9 -1 9 C-1 8.34 -1 7.68 -1 7 C-0.34 7 0.32 7 1 7 C0.67 4.69 0.34 2.38 0 0 Z " transform="translate(794,353)" style="fill: #eeeeee;"/><path d="M0 0 C0.33 0 0.66 0 1 0 C1 1.98 1 3.96 1 6 C1.66 6.33 2.32 6.66 3 7 C-0.90028225 9.60018816 -4.47434569 9.15085514 -9 9 C-9 8.67 -9 8.34 -9 8 C-7.02 7.67 -5.04 7.34 -3 7 C-4.32 6.34 -5.64 5.68 -7 5 C-5.02 4.67 -3.04 4.34 -1 4 C-0.67 2.68 -0.34 1.36 0 0 Z " transform="translate(661,349)" style="fill: #f3f3f3;"/><path d="M0 0 C2 1.8125 2 1.8125 4 4 C4 4.99 4 5.98 4 7 C5.65 7 7.3 7 9 7 C9 7.33 9 7.66 9 8 C2.63636364 8.48951049 2.63636364 8.48951049 -0.4375 6.125 C-2 4 -2 4 -2 2 C-1.34 2 -0.68 2 0 2 C0 1.34 0 0.68 0 0 Z " transform="translate(527,350)" style="fill: #e9e9e9;"/><path d="M0 0 C2.875 0.25 2.875 0.25 6 1 C7.375 3.0625 7.375 3.0625 8 5 C6 6 6 6 4.0546875 5.44140625 C3.33539062 5.15136719 2.61609375 4.86132812 1.875 4.5625 C1.15054688 4.27503906 0.42609375 3.98757813 -0.3203125 3.69140625 C-1.15175781 3.34916016 -1.15175781 3.34916016 -2 3 C-1.34 2.01 -0.68 1.02 0 0 Z " transform="translate(759,344)" style="fill: #e9e9e9;"/><path d="M0 0 C5.625 -0.25 5.625 -0.25 9 2 C8.67 2.99 8.34 3.98 8 5 C3.545 4.01 3.545 4.01 -1 3 C-0.67 2.01 -0.34 1.02 0 0 Z " transform="translate(759,335)" style="fill: #e1e1e1;"/><path d="M0 0 C3.42931954 3.7559214 4.56429083 8.23466745 6 13 C3 12 3 12 1.3125 8.75 C0.16055679 5.45873369 -0.31025348 3.4127883 0 0 Z " transform="translate(411,181)" style="fill: #e9e9e9;"/><path d="M0 0 C1.078125 1.84765625 1.078125 1.84765625 2 4 C0.75 6.4375 0.75 6.4375 -1 9 C-1.33 9.9075 -1.66 10.815 -2 11.75 C-2.33 12.4925 -2.66 13.235 -3 14 C-3.99 14.33 -4.98 14.66 -6 15 C-4.40109514 9.80355921 -2.25861997 4.93387858 0 0 Z " transform="translate(477,170)" style="fill: #e8e8e8;"/><path d="M0 0 C0.33 0 0.66 0 1 0 C1.33 2.97 1.66 5.94 2 9 C4.97 9.495 4.97 9.495 8 10 C8 10.33 8 10.66 8 11 C6.02 11.33 4.04 11.66 2 12 C1.67 14.97 1.34 17.94 1 21 C0.67 21 0.34 21 0 21 C0 14.07 0 7.14 0 0 Z " transform="translate(1005,336)" style="fill: #d6d6d6;"/><path d="M0 0 C6.4 0.36923077 6.4 0.36923077 9.4375 3.5625 C9.953125 4.366875 10.46875 5.17125 11 6 C9.68 6 8.36 6 7 6 C7 5.34 7 4.68 7 4 C5.68 4 4.36 4 3 4 C3 3.34 3 2.68 3 2 C2.01 2 1.02 2 0 2 C0 1.34 0 0.68 0 0 Z " transform="translate(1091,140)" style="fill: #F3681C;"/><path d="M0 0 C4.875 4.625 4.875 4.625 6 8 C1.25 7.25 1.25 7.25 -1 5 C-0.625 2.375 -0.625 2.375 0 0 Z " transform="translate(1030,348)" style="fill: #dfdfdf;"/><path d="M0 0 C2 3 2 3 1.7578125 5.26171875 C1.54898438 6.06222656 1.34015625 6.86273438 1.125 7.6875 C0.92132812 8.49574219 0.71765625 9.30398438 0.5078125 10.13671875 C0.34023438 10.75160156 0.17265625 11.36648438 0 12 C-1.32 12 -2.64 12 -4 12 C-2.66666667 8 -1.33333333 4 0 0 Z " transform="translate(865,346)" style="fill: #efefef;"/><path d="M0 0 C0 3.10551666 -0.5393715 4.35261084 -2 7 C-2.66 7 -3.32 7 -4 7 C-4 8.98 -4 10.96 -4 13 C-4.99 12.34 -5.98 11.68 -7 11 C-6.40716379 7.60807637 -5.23256811 5.7892243 -2.9375 3.25 C-2.38964844 2.63640625 -1.84179688 2.0228125 -1.27734375 1.390625 C-0.85582031 0.93171875 -0.43429687 0.4728125 0 0 Z " transform="translate(964,247)" style="fill: #F07430;"/><path d="M0 0 C0.66 0.99 1.32 1.98 2 3 C-1.44615385 9.76923077 -1.44615385 9.76923077 -4.25 10.9375 C-4.8275 10.958125 -5.405 10.97875 -6 11 C-4.54955729 6.89041233 -2.48889248 3.56741255 0 0 Z " transform="translate(845,227)" style="fill: #e5e5e5;"/><path d="M0 0 C0.66 0 1.32 0 2 0 C2 0.66 2 1.32 2 2 C2.66 2 3.32 2 4 2 C4 3.65 4 5.3 4 7 C4.66 7.33 5.32 7.66 6 8 C3.83125748 7.49396008 2.00032373 7.00016187 0 6 C0 5.34 0 4.68 0 4 C-0.66 4 -1.32 4 -2 4 C-2 3.34 -2 2.68 -2 2 C-1.34 2 -0.68 2 0 2 C0 1.34 0 0.68 0 0 Z " transform="translate(1162,192)" style="fill: #FB6410;"/><path d="M0 0 C1.67542976 0.28604898 3.34385343 0.61781233 5 1 C5 1.66 5 2.32 5 3 C4.34 3 3.68 3 3 3 C3 3.66 3 4.32 3 5 C2.01 5 1.02 5 0 5 C0 5.66 0 6.32 0 7 C-0.99 7 -1.98 7 -3 7 C-1.125 1.125 -1.125 1.125 0 0 Z " transform="translate(967,159)" style="fill: #F4691C;"/><path d="M0 0 C1.98 0.99 1.98 0.99 4 2 C3.44855089 6.08072342 3.08669204 6.91330796 0 10 C0 6.7 0 3.4 0 0 Z " transform="translate(1052,152)" style="fill: #F56A1D;"/><path d="M0 0 C0.69867187 0.0721875 1.39734375 0.144375 2.1171875 0.21875 C3.02726562 0.3115625 3.93734375 0.404375 4.875 0.5 C5.77992187 0.5928125 6.68484375 0.685625 7.6171875 0.78125 C9.93313211 1.03047295 9.93313211 1.03047295 12 1 C12 1.66 12 2.32 12 3 C10.72125 3.144375 9.4425 3.28875 8.125 3.4375 C5.74307106 3.70642746 4.15547309 3.92226346 2 5 C1.01 4.34 0.02 3.68 -1 3 C-0.67 2.01 -0.34 1.02 0 0 Z " transform="translate(1104,352)" style="fill: #eeeeee;"/><path d="M0 0 C0.66 0 1.32 0 2 0 C1.39254603 4.85963179 -0.72758967 8.7405518 -3 13 C-3.33 13 -3.66 13 -4 13 C-4.63934602 7.88523181 -2.40533547 4.32745622 0 0 Z " transform="translate(504,157)" style="fill: #e1e1e1;"/><path d="M0 0 C1 3 1 3 1 6 C-2.01324195 7.50662097 -4.68286377 7.17770373 -8 7 C-8.66 6.34 -9.32 5.68 -10 5 C-7.69 5 -5.38 5 -3 5 C-4.32 4.34 -5.64 3.68 -7 3 C-6.030625 2.87625 -5.06125 2.7525 -4.0625 2.625 C-2.5465625 2.315625 -2.5465625 2.315625 -1 2 C-0.67 1.34 -0.34 0.68 0 0 Z " transform="translate(742,351)" style="fill: #f2f2f2;"/><path d="M0 0 C1.0169313 2.65498232 1.13022151 3.69155375 0.00390625 6.359375 C-0.47175781 7.14828125 -0.94742188 7.9371875 -1.4375 8.75 C-1.91058594 9.54921875 -2.38367188 10.3484375 -2.87109375 11.171875 C-3.24363281 11.77515625 -3.61617187 12.3784375 -4 13 C-4.66 13 -5.32 13 -6 13 C-4.58707905 8.1725201 -2.57025846 4.2837641 0 0 Z " transform="translate(763,274)" style="fill: #e8e8e8;"/><path d="M0 0 C0.97687451 3.03916514 1.105817 4.98413546 0 8 C-0.66 8.66 -1.32 9.32 -2 10 C-3 9 -3 9 -3.25 5.5625 C-3.1675 4.386875 -3.085 3.21125 -3 2 C-2.01 1.34 -1.02 0.68 0 0 Z " transform="translate(963,252)" style="fill: #FA6513;"/><path d="M0 0 C0.33 0.99 0.66 1.98 1 3 C3.01508358 3.73323796 3.01508358 3.73323796 5 4 C4.01 5.485 4.01 5.485 3 7 C2.34 7 1.68 7 1 7 C0.67 6.34 0.34 5.68 0 5 C-0.99 5 -1.98 5 -3 5 C-3 3.68 -3 2.36 -3 1 C-2.01 0.67 -1.02 0.34 0 0 Z " transform="translate(873,249)" style="fill: #FC5C03;"/><path d="M0 0 C1.65 0 3.3 0 5 0 C5 0.66 5 1.32 5 2 C4.34 2 3.68 2 3 2 C3 2.66 3 3.32 3 4 C1.741875 3.87625 0.48375 3.7525 -0.8125 3.625 C-1.87404297 3.52058594 -1.87404297 3.52058594 -2.95703125 3.4140625 C-5 3 -5 3 -8 1 C-5.36 1.33 -2.72 1.66 0 2 C0 1.34 0 0.68 0 0 Z " transform="translate(999,212)" style="fill: #F87A34;"/><path d="M0 0 C0.87840996 3.09720845 0.99435406 4.90645403 0 8 C-0.66 8 -1.32 8 -2 8 C-2.33 9.98 -2.66 11.96 -3 14 C-3.99 14.33 -4.98 14.66 -6 15 C-4.40109514 9.80355921 -2.25861997 4.93387858 0 0 Z " transform="translate(806,184)" style="fill: #ebebeb;"/><path d="M0 0 C2.475 0.495 2.475 0.495 5 1 C5.33 1.99 5.66 2.98 6 4 C5.34 4 4.68 4 4 4 C4.99 5.485 4.99 5.485 6 7 C5.625 9.1875 5.625 9.1875 5 11 C4.16151196 9.54462432 3.32936066 8.08559627 2.5 6.625 C2.0359375 5.81289062 1.571875 5.00078125 1.09375 4.1640625 C0 2 0 2 0 0 Z " transform="translate(718,182)" style="fill: #e1e1e1;"/><path d="M0 0 C3.96 0 7.92 0 12 0 C12 0.66 12 1.32 12 2 C6.06 2.495 6.06 2.495 0 3 C0 2.01 0 1.02 0 0 Z " transform="translate(502,345)" style="fill: #dadada;"/><path d="M0 0 C2.475 0.495 2.475 0.495 5 1 C5 3.66666667 5 6.33333333 5 9 C1.9083091 6.47043472 1.09068668 3.77545388 0 0 Z " transform="translate(615,258)" style="fill: #e2e2e2;"/><path d="M0 0 C2.16874252 0.50603992 3.99967627 0.99983813 6 2 C6 2.66 6 3.32 6 4 C6.66 4 7.32 4 8 4 C8 5.98 8 7.96 8 10 C5.33333333 6.66666667 2.66666667 3.33333333 0 0 Z " transform="translate(1032,226)" style="fill: #EC6B20;"/><path d="M0 0 C0.66 0.33 1.32 0.66 2 1 C1.67 1.99 1.34 2.98 1 4 C0.34 4 -0.32 4 -1 4 C-1 4.66 -1 5.32 -1 6 C-2.98 6 -4.96 6 -7 6 C-5.01180815 3.01771223 -3.42353587 1.21480305 0 0 Z " transform="translate(983,144)" style="fill: #F6671A;"/><path d="M0 0 C2.96052484 3.36423277 3.92289822 6.69159287 5 11 C2.525 10.01 2.525 10.01 0 9 C0 6.03 0 3.06 0 0 Z " transform="translate(702,262)" style="fill: #e5e5e5;"/><path d="M0 0 C0 1.32 0 2.64 0 4 C0.99 4 1.98 4 3 4 C3 6.31 3 8.62 3 11 C0.25722422 7.80009492 -1.6302836 4.99500618 -3 1 C-2 0 -2 0 0 0 Z " transform="translate(623,189)" style="fill: #e7e7e7;"/><path d="M0 0 C0.33 0 0.66 0 1 0 C1 2.97 1 5.94 1 9 C0.67 8.34 0.34 7.68 0 7 C-1.32 7 -2.64 7 -4 7 C-4 5.68 -4 4.36 -4 3 C-2.68 3 -1.36 3 0 3 C0 2.01 0 1.02 0 0 Z " transform="translate(1102,147)" style="fill: #EF6B22;"/><path d="M0 0 C0.99 0.33 1.98 0.66 3 1 C2 4 2 4 0 5 C-2.3329866 5.04022391 -4.66706666 5.04320247 -7 5 C-7 4.34 -7 3.68 -7 3 C-4.69 3 -2.38 3 0 3 C0 2.01 0 1.02 0 0 Z " transform="translate(830,352)" style="fill: #dedede;"/><path d="M0 0 C1.8125 1.5 1.8125 1.5 3 3 C-0.01324195 4.50662097 -2.68286377 4.17770373 -6 4 C-6.66 3.34 -7.32 2.68 -8 2 C-4.76746204 -0.15502531 -3.74849077 -0.46856135 0 0 Z " transform="translate(980,354)" style="fill: #ececec;"/><path d="M0 0 C2.64 0 5.28 0 8 0 C7.67 0.99 7.34 1.98 7 3 C4.03 2.505 4.03 2.505 1 2 C1 4.31 1 6.62 1 9 C0.67 9 0.34 9 0 9 C0 6.03 0 3.06 0 0 Z " transform="translate(842,348)" style="fill: #efefef;"/><path d="M0 0 C2.475 0.495 2.475 0.495 5 1 C5.33 2.98 5.66 4.96 6 7 C3.00675737 5.9024777 2.15389099 5.32317108 0.75 2.375 C0.5025 1.59125 0.255 0.8075 0 0 Z " transform="translate(627,345)" style="fill: #dfdfdf;"/><path d="M0 0 C0.66 0 1.32 0 2 0 C2 0.66 2 1.32 2 2 C4.31 2 6.62 2 9 2 C5.79619983 4.13586678 4.98060033 4.23132175 1.3125 4.125 C0.10013672 4.09792969 0.10013672 4.09792969 -1.13671875 4.0703125 C-2.05904297 4.03550781 -2.05904297 4.03550781 -3 4 C-2.34 3.67 -1.68 3.34 -1 3 C-0.67 2.01 -0.34 1.02 0 0 Z " transform="translate(1022,274)" style="fill: #F16015;"/><path d="M0 0 C4 4.75 4 4.75 4 7 C3.38125 6.814375 2.7625 6.62875 2.125 6.4375 C-0.04160178 5.76313824 -0.04160178 5.76313824 -2 7 C-2.33 6.01 -2.66 5.02 -3 4 C-1.5625 1.8125 -1.5625 1.8125 0 0 Z " transform="translate(923,257)" style="fill: #e0e0e0;"/><path d="M0 0 C-0.33 1.32 -0.66 2.64 -1 4 C-0.01 4.33 0.98 4.66 2 5 C1.01 5.495 1.01 5.495 0 6 C-2.31 4.35 -4.62 2.7 -7 1 C-3.375 -1.125 -3.375 -1.125 0 0 Z " transform="translate(979,202)" style="fill: #F06D22;"/><path d="M0 0 C-1.12451727 2.9719385 -2.22293791 5.33440687 -4 8 C-4.66 7.67 -5.32 7.34 -6 7 C-6 5.68 -6 4.36 -6 3 C-2.78571429 0 -2.78571429 0 0 0 Z " transform="translate(534,140)" style="fill: #e5e5e5;"/><path d="M0 0 C3.875 0.875 3.875 0.875 5 2 C5.04092937 4.33297433 5.04241723 6.66705225 5 9 C4.01 8.67 3.02 8.34 2 8 C2.04125 7.05125 2.0825 6.1025 2.125 5.125 C2.34973818 1.89755144 2.34973818 1.89755144 0 0 Z " transform="translate(764,346)" style="fill: #dddddd;"/><path d="M0 0 C1.32 0 2.64 0 4 0 C4.33 1.65 4.66 3.3 5 5 C3.35 5.33 1.7 5.66 0 6 C0 4.02 0 2.04 0 0 Z " transform="translate(1032,270)" style="fill: #F36514;"/><path d="M0 0 C1 3 1 3 1 7 C0.01 7 -0.98 7 -2 7 C-2.66 8.32 -3.32 9.64 -4 11 C-5 8 -5 8 -4.00390625 5.95703125 C-3.52824219 5.24933594 -3.05257812 4.54164063 -2.5625 3.8125 C-2.08941406 3.09707031 -1.61632812 2.38164062 -1.12890625 1.64453125 C-0.75636719 1.10183594 -0.38382813 0.55914062 0 0 Z " transform="translate(822,263)" style="fill: #e5e5e5;"/><path d="M0 0 C0.66 0 1.32 0 2 0 C2 0.66 2 1.32 2 2 C2.66 2 3.32 2 4 2 C4 2.66 4 3.32 4 4 C1.69 4.66 -0.62 5.32 -3 6 C-3.33 5.34 -3.66 4.68 -4 4 C-3.34 4 -2.68 4 -2 4 C-2 3.34 -2 2.68 -2 2 C-1.34 2 -0.68 2 0 2 C0 1.34 0 0.68 0 0 Z " transform="translate(972,262)" style="fill: #F86714;"/><path d="M0 0 C-0.33 2.97 -0.66 5.94 -1 9 C-3.15377564 6.37801226 -4.40072174 4.35595828 -5 1 C-3 0 -3 0 0 0 Z " transform="translate(763,259)" style="fill: #e5e5e5;"/><path d="M0 0 C0.33 0.66 0.66 1.32 1 2 C0.67 2.33 0.34 2.66 0 3 C0.33 3.66 0.66 4.32 1 5 C-2.3 5 -5.6 5 -9 5 C-6.3534665 2.3534665 -3.43778736 1.40058003 0 0 Z " transform="translate(1033,255)" style="fill: #F26F22;"/><path d="M0 0 C0.33 0.66 0.66 1.32 1 2 C1.66 2.33 2.32 2.66 3 3 C2.01 3.495 2.01 3.495 1 4 C-0.13350534 6.01669827 -0.13350534 6.01669827 -1 8 C-1.99 8 -2.98 8 -4 8 C-2.87548273 5.0280615 -1.77706209 2.66559313 0 0 Z " transform="translate(620,229)" style="fill: #e5e5e5;"/><path d="M0 0 C0.99 0 1.98 0 3 0 C1.90931332 3.77545388 1.0916909 6.47043472 -2 9 C-3 6 -3 6 -1.5625 2.8125 C-1.046875 1.884375 -0.53125 0.95625 0 0 Z " transform="translate(497,170)" style="fill: #e0e0e0;"/><path d="M0 0 C2.475 0.99 2.475 0.99 5 2 C5 3.65 5 5.3 5 7 C4.34 7 3.68 7 3 7 C0.70351351 4.4385343 0 3.52032428 0 0 Z " transform="translate(1113,345)" style="fill: #e0e0e0;"/><path d="M0 0 C0.33 0 0.66 0 1 0 C1.3125 2.1875 1.3125 2.1875 1 5 C-1.5 7.8125 -1.5 7.8125 -4 10 C-4 8.35 -4 6.7 -4 5 C-3.34 5 -2.68 5 -2 5 C-2 4.01 -2 3.02 -2 2 C-1.34 2 -0.68 2 0 2 C0 1.34 0 0.68 0 0 Z " transform="translate(1069,341)" style="fill: #dfdfdf;"/><path d="M0 0 C2.0625 0.4375 2.0625 0.4375 4 1 C2.71937515 2.7074998 1.38232443 4.37373596 0 6 C-0.66 6 -1.32 6 -2 6 C-1.125 1.125 -1.125 1.125 0 0 Z " transform="translate(649,337)" style="fill: #dbdbdb;"/><path d="M0 0 C1.32 0 2.64 0 4 0 C4.33 2.31 4.66 4.62 5 7 C4.34 7 3.68 7 3 7 C3 6.34 3 5.68 3 5 C2.34 5 1.68 5 1 5 C0.67 3.35 0.34 1.7 0 0 Z " transform="translate(870,335)" style="fill: #dedede;"/><path d="M0 0 C0.66 0.33 1.32 0.66 2 1 C0.35 4.3 -1.3 7.6 -3 11 C-3.95904856 7.16380575 -3.91892116 5.67568464 -3 2 C-2.34 2 -1.68 2 -1 2 C-0.67 1.34 -0.34 0.68 0 0 Z " transform="translate(801,236)" style="fill: #e6e6e6;"/><path d="M0 0 C-1.1858237 3.37503669 -2.27573689 5.64722731 -5 8 C-5.66 7.67 -6.32 7.34 -7 7 C-3.86206897 0 -3.86206897 0 0 0 Z " transform="translate(866,219)" style="fill: #e3e3e3;"/><path d="M0 0 C2 1 2 1 3.125 3.25 C4.00513321 6.01613295 4.1645438 8.12048351 4 11 C1.35534962 7.8745041 0.15585285 4.91211733 -1 1 C-0.67 0.67 -0.34 0.34 0 0 Z " transform="translate(378,155)" style="fill: #e6e6e6;"/><path d="M0 0 C0.66 0 1.32 0 2 0 C2 0.66 2 1.32 2 2 C1.34 2 0.68 2 0 2 C0 3.32 0 4.64 0 6 C-1.32 6 -2.64 6 -4 6 C-4 6.66 -4 7.32 -4 8 C-4.66 7.67 -5.32 7.34 -6 7 C-5.04882866 5.8274869 -4.08882991 4.66212985 -3.125 3.5 C-2.59132813 2.8503125 -2.05765625 2.200625 -1.5078125 1.53125 C-0.76144531 0.77328125 -0.76144531 0.77328125 0 0 Z " transform="translate(974,150)" style="fill: #F36A27;"/><path d="M0 0 C0.66 0.33 1.32 0.66 2 1 C1.375 3.375 1.375 3.375 0 6 C-3.125 7.3125 -3.125 7.3125 -6 8 C-4.55746343 4.63408134 -2.66735273 2.48952921 0 0 Z " transform="translate(1086,140)" style="fill: #EF6D29;"/><path d="M0 0 C2.18975773 3.28463659 2.99806563 6.20696275 4 10 C3.01 10 2.02 10 1 10 C0.34 8.68 -0.32 7.36 -1 6 C-0.34 6 0.32 6 1 6 C0.67 4.02 0.34 2.04 0 0 Z " transform="translate(874,336)" style="fill: #f1f1f1;"/><path d="M0 0 C0.99 0.33 1.98 0.66 3 1 C3 2.65 3 4.3 3 6 C2.01 6.33 1.02 6.66 0 7 C-0.38133299 5.0085944 -0.71325582 3.00720923 -1 1 C-0.67 0.67 -0.34 0.34 0 0 Z " transform="translate(514,337)" style="fill: #e2e2e2;"/><path d="M0 0 C0 1.98 0 3.96 0 6 C-1.32 5.34 -2.64 4.68 -4 4 C-4 0 -4 0 0 0 Z " transform="translate(968,260)" style="fill: #F06118;"/><path d="M0 0 C0.99 0 1.98 0 3 0 C3.66 2.31 4.32 4.62 5 7 C3.68 7 2.36 7 1 7 C0.67 4.69 0.34 2.38 0 0 Z " transform="translate(429,225)" style="fill: #e3e3e3;"/><path d="M0 0 C1.58409994 0.11487748 3.16728963 0.24234508 4.75 0.375 C6.07257812 0.47941406 6.07257812 0.47941406 7.421875 0.5859375 C10 1 10 1 14 3 C10.04 3 6.08 3 2 3 C2 2.34 2 1.68 2 1 C1.34 0.67 0.68 0.34 0 0 Z " transform="translate(666,219)" style="fill: #f0f0f0;"/><path d="M0 0 C2.475 0.99 2.475 0.99 5 2 C4.67 3.98 4.34 5.96 4 8 C1.84622436 5.37801226 0.59927826 3.35595828 0 0 Z " transform="translate(388,179)" style="fill: #e2e2e2;"/><path d="M0 0 C0.66 0 1.32 0 2 0 C2 0.66 2 1.32 2 2 C3.32 2.33 4.64 2.66 6 3 C6 3.99 6 4.98 6 6 C3.97954558 5.39816251 1.97888961 4.72693904 0 4 C-0.33 3.34 -0.66 2.68 -1 2 C-0.67 1.34 -0.34 0.68 0 0 Z " transform="translate(1034,160)" style="fill: #EE6B27;"/><path d="M0 0 C1.32 0 2.64 0 4 0 C3.67 1.32 3.34 2.64 3 4 C1.68 4.33 0.36 4.66 -1 5 C-1.33 4.01 -1.66 3.02 -2 2 C-1.34 2 -0.68 2 0 2 C0 1.34 0 0.68 0 0 Z " transform="translate(591,156)" style="fill: #dbdbdb;"/><path d="M0 0 C1.99097846 2.98646769 2.94124926 5.59687262 4 9 C1.525 8.01 1.525 8.01 -1 7 C-0.67 4.69 -0.34 2.38 0 0 Z " transform="translate(398,152)" style="fill: #e9e9e9;"/><path d="M0 0 C3 1 3 1 4.6875 3.9375 C6 7 6 7 6 9 C3 8 3 8 1.3125 5.0625 C0 2 0 2 0 0 Z " transform="translate(392,143)" style="fill: #e7e7e7;"/><path d="M0 0 C1.74627478 2.61941217 2.38722388 4.03824877 3 7 C1.68 7 0.36 7 -1 7 C-1.625 5.1875 -1.625 5.1875 -2 3 C-1.34 2.01 -0.68 1.02 0 0 Z " transform="translate(880,351)" style="fill: #f1f1f1;"/><path d="M0 0 C2.97 0.495 2.97 0.495 6 1 C6.33 1.99 6.66 2.98 7 4 C5.35 4 3.7 4 2 4 C1.34 2.68 0.68 1.36 0 0 Z " transform="translate(969,352)" style="fill: #dfdfdf;"/><path d="M0 0 C0.33 0 0.66 0 1 0 C1.33 2.97 1.66 5.94 2 9 C0.68 9.33 -0.64 9.66 -2 10 C-2.33 8.02 -2.66 6.04 -3 4 C-2.67 4.99 -2.34 5.98 -2 7 C-1.34 7 -0.68 7 0 7 C0 4.69 0 2.38 0 0 Z " transform="translate(970,343)" style="fill: #ededed;"/><path d="M0 0 C0.66 0.66 1.32 1.32 2 2 C1.9765625 4.1640625 1.9765625 4.1640625 1.625 6.625 C1.51414062 7.44226563 1.40328125 8.25953125 1.2890625 9.1015625 C1.19367187 9.72804688 1.09828125 10.35453125 1 11 C-1.78637633 6.8204355 -0.79562512 4.85331323 0 0 Z " transform="translate(600,341)" style="fill: #f1f1f1;"/><path d="M0 0 C1.32 1.32 2.64 2.64 4 4 C3.34 5.32 2.68 6.64 2 8 C0.4375 6.8125 0.4375 6.8125 -1 5 C-0.6875 2.3125 -0.6875 2.3125 0 0 Z " transform="translate(949,340)" style="fill: #ebebeb;"/><path d="M0 0 C0.66 0.33 1.32 0.66 2 1 C1.67 2.65 1.34 4.3 1 6 C0.01 6.33 -0.98 6.66 -2 7 C-2 5.02 -2 3.04 -2 1 C-1.34 0.67 -0.68 0.34 0 0 Z " transform="translate(1059,336)" style="fill: #e3e3e3;"/><path d="M0 0 C0.66 0.33 1.32 0.66 2 1 C1.67 3.31 1.34 5.62 1 8 C0.34 8 -0.32 8 -1 8 C-1.93065133 5.39417629 -2.14917407 4.35801776 -1.0625 1.75 C-0.711875 1.1725 -0.36125 0.595 0 0 Z " transform="translate(454,259)" style="fill: #dcdcdc;"/><path d="M0 0 C0.6875 1.6875 0.6875 1.6875 1 4 C-0.4375 6.75 -0.4375 6.75 -2 9 C-4 7 -4 7 -4 4 C-2.68 3.67 -1.36 3.34 0 3 C0 2.01 0 1.02 0 0 Z " transform="translate(794,249)" style="fill: #dcdcdc;"/><path d="M0 0 C0.33 0 0.66 0 1 0 C1.66 3.96 2.32 7.92 3 12 C2.34 11.67 1.68 11.34 1 11 C1 10.34 1 9.68 1 9 C0.34 9 -0.32 9 -1 9 C-0.67 6.03 -0.34 3.06 0 0 Z " transform="translate(632,244)" style="fill: #eaeaea;"/><path d="M0 0 C0 1.65 0 3.3 0 5 C-0.66 5 -1.32 5 -2 5 C-2.33 6.65 -2.66 8.3 -3 10 C-3.33 10 -3.66 10 -4 10 C-4.1953125 3.9453125 -4.1953125 3.9453125 -4 2 C-2 0 -2 0 0 0 Z " transform="translate(1044,235)" style="fill: #FE6513;"/><path d="M0 0 C2 2 2 2 2.125 5.625 C2.08375 6.73875 2.0425 7.8525 2 9 C1.34 9 0.68 9 0 9 C0 8.01 0 7.02 0 6 C-0.66 6 -1.32 6 -2 6 C-2 5.34 -2 4.68 -2 4 C-1.34 4 -0.68 4 0 4 C0 2.68 0 1.36 0 0 Z " transform="translate(1058,226)" style="fill: #F97936;"/><path d="M0 0 C1.5 1.3125 1.5 1.3125 3 3 C3 3.99 3 4.98 3 6 C1.68 6.33 0.36 6.66 -1 7 C-1.33 5.35 -1.66 3.7 -2 2 C-1.34 2 -0.68 2 0 2 C0 1.34 0 0.68 0 0 Z " transform="translate(857,210)" style="fill: #dadada;"/><path d="M0 0 C1.32 1.65 2.64 3.3 4 5 C3.67 5.66 3.34 6.32 3 7 C1.68 6.67 0.36 6.34 -1 6 C-0.67 4.02 -0.34 2.04 0 0 Z " transform="translate(887,199)" style="fill: #e4e4e4;"/><path d="M0 0 C0.66 0 1.32 0 2 0 C2.33 0.99 2.66 1.98 3 3 C1.1875 4.5625 1.1875 4.5625 -1 6 C-1.99 5.67 -2.98 5.34 -4 5 C-3.34 4.01 -2.68 3.02 -2 2 C-1.34 2 -0.68 2 0 2 C0 1.34 0 0.68 0 0 Z " transform="translate(1154,188)" style="fill: #F76921;"/><path d="M0 0 C-0.33 0.99 -0.66 1.98 -1 3 C-4.63 2.67 -8.26 2.34 -12 2 C-12 1.67 -12 1.34 -12 1 C-7.95858806 0.36605303 -4.0934693 -0.12404452 0 0 Z " transform="translate(598,353)" style="fill: #e6e6e6;"/><path d="M0 0 C0.33 0 0.66 0 1 0 C1.33 2.64 1.66 5.28 2 8 C0.35 8.33 -1.3 8.66 -3 9 C-2.01 6.03 -1.02 3.06 0 0 Z " transform="translate(574,282)" style="fill: #e8e8e8;"/><path d="M0 0 C0.66 0.33 1.32 0.66 2 1 C1.25 5.75 1.25 5.75 -1 8 C-1.625 5.6875 -1.625 5.6875 -2 3 C-1.34 2.01 -0.68 1.02 0 0 Z " transform="translate(840,254)" style="fill: #e3e3e3;"/><path d="M0 0 C1.65 0 3.3 0 5 0 C3.02 2.97 3.02 2.97 1 6 C0.34 5.34 -0.32 4.68 -1 4 C-0.625 1.875 -0.625 1.875 0 0 Z " transform="translate(633,237)" style="fill: #e2e2e2;"/><path d="M0 0 C1.32 0 2.64 0 4 0 C3.34 1.32 2.68 2.64 2 4 C-0.31 3.67 -2.62 3.34 -5 3 C-5 2.67 -5 2.34 -5 2 C-3.35 2 -1.7 2 0 2 C0 1.34 0 0.68 0 0 Z " transform="translate(1014,216)" style="fill: #F0641D;"/><path d="M0 0 C3.3 0.99 6.6 1.98 10 3 C10 3.33 10 3.66 10 4 C7.03 4 4.06 4 1 4 C0.67 2.68 0.34 1.36 0 0 Z " transform="translate(998,194)" style="fill: #F46619;"/><path d="M0 0 C2.97 0 5.94 0 9 0 C6.4345406 2.5654594 4.52313332 2.54046087 1 3 C0.67 2.01 0.34 1.02 0 0 Z " transform="translate(636,196)" style="fill: #dbdbdb;"/><path d="M0 0 C2.31 0 4.62 0 7 0 C7.33 0.99 7.66 1.98 8 3 C6.1875 3.625 6.1875 3.625 4 4 C1 2 1 2 0 0 Z " transform="translate(534,139)" style="fill: #ebebeb;"/><path d="M0 0 C3.625 -0.1875 3.625 -0.1875 7 0 C6.67 0.66 6.34 1.32 6 2 C3.35139573 2.59355614 0.70802678 2.74209269 -2 3 C-1.34 2.01 -0.68 1.02 0 0 Z " transform="translate(1034,336)" style="fill: #dadada;"/><path d="M0 0 C-1.375 2 -1.375 2 -3 4 C-3.66 4 -4.32 4 -5 4 C-5 3.34 -5 2.68 -5 2 C-5.66 2 -6.32 2 -7 2 C-7 1.34 -7 0.68 -7 0 C-4.3333581 -1.33332095 -2.83319697 -0.67102033 0 0 Z " transform="translate(1047,268)" style="fill: #F1671C;"/><path d="M0 0 C0 0.99 0 1.98 0 3 C-4.75 2.25 -4.75 2.25 -7 0 C-3.86650268 -1.04449911 -3.01031744 -0.93423645 0 0 Z " transform="translate(676,261)" style="fill: #e4e4e4;"/><path d="M0 0 C0.625 1.875 0.625 1.875 1 4 C0.34 4.66 -0.32 5.32 -1 6 C-3.125 5.625 -3.125 5.625 -5 5 C-3.35 3.35 -1.7 1.7 0 0 Z " transform="translate(869,250)" style="fill: #F05E1A;"/><path d="M0 0 C0.33 0 0.66 0 1 0 C1.33 4.29 1.66 8.58 2 13 C1.01 13 0.02 13 -1 13 C-0.67 8.71 -0.34 4.42 0 0 Z " transform="translate(684,238)" style="fill: #ffffff;"/><path d="M0 0 C0.33 1.98 0.66 3.96 1 6 C0.01 6.33 -0.98 6.66 -2 7 C-2.66 5.02 -3.32 3.04 -4 1 C-1 0 -1 0 0 0 Z " transform="translate(748,231)" style="fill: #e1e1e1;"/><path d="M0 0 C-1.65 0.33 -3.3 0.66 -5 1 C-5 1.66 -5 2.32 -5 3 C-6.98 3 -8.96 3 -11 3 C-7.18178484 -0.02823961 -4.81391924 -1.49397494 0 0 Z " transform="translate(640,221)" style="fill: #efefef;"/><path d="M0 0 C0.66 0.66 1.32 1.32 2 2 C1.625 5.625 1.625 5.625 1 9 C-0.61949011 6.42786866 -1.04408751 5.32330841 -0.625 2.25 C-0.41875 1.5075 -0.2125 0.765 0 0 Z M-2 9 C0 10 0 10 0 10 Z " transform="translate(885,196)" style="fill: #e0e0e0;"/><path d="M0 0 C-0.66 2.31 -1.32 4.62 -2 7 C-2.66 6.67 -3.32 6.34 -4 6 C-4.625 3.9375 -4.625 3.9375 -5 2 C-2 0 -2 0 0 0 Z " transform="translate(490,191)" style="fill: #e1e1e1;"/><path d="M0 0 C1.32 0.33 2.64 0.66 4 1 C3.67 2.65 3.34 4.3 3 6 C2.01 5.34 1.02 4.68 0 4 C0 2.68 0 1.36 0 0 Z " transform="translate(527,155)" style="fill: #e1e1e1;"/><path d="M0 0 C0.99 0.66 1.98 1.32 3 2 C-0.35327639 4.23551759 -0.90743657 4.17283528 -4.6875 3.625 C-5.49574219 3.51414062 -6.30398438 3.40328125 -7.13671875 3.2890625 C-7.75160156 3.19367188 -8.36648438 3.09828125 -9 3 C-9 2.67 -9 2.34 -9 2 C-6.94921875 1.77213542 -4.8984375 1.54427083 -2.84765625 1.31640625 C-0.98859771 1.18113386 -0.98859771 1.18113386 0 0 Z " transform="translate(852,336)" style="fill: #f6f6f6;"/><path d="M0 0 C0.66 0.99 1.32 1.98 2 3 C0.7260411 5.03833424 -0.61061923 7.03852126 -2 9 C-2.66 9 -3.32 9 -4 9 C-2.80100302 5.9168649 -1.52299523 2.93720508 0 0 Z " transform="translate(749,300)" style="fill: #e7e7e7;"/><path d="M0 0 C2.64 0.99 5.28 1.98 8 3 C8 3.33 8 3.66 8 4 C5.36 4 2.72 4 0 4 C0 2.68 0 1.36 0 0 Z " transform="translate(984,254)" style="fill: #F57733;"/><path d="M0 0 C2 4 2 4 1 7 C0.34 7 -0.32 7 -1 7 C-1 7.66 -1 8.32 -1 9 C-1.66 9 -2.32 9 -3 9 C-2.01 6.03 -1.02 3.06 0 0 Z " transform="translate(779,241)" style="fill: #e3e3e3;"/><path d="M0 0 C1.32 0.33 2.64 0.66 4 1 C4 2.65 4 4.3 4 6 C3.01 5.67 2.02 5.34 1 5 C0.67 3.35 0.34 1.7 0 0 Z " transform="translate(416,237)" style="fill: #dadada;"/><path d="M0 0 C1.5625 1.125 1.5625 1.125 3 3 C2.6875 6.1875 2.6875 6.1875 2 9 C1.67 7.68 1.34 6.36 1 5 C0.34 5 -0.32 5 -1 5 C-0.67 3.35 -0.34 1.7 0 0 Z " transform="translate(903,225)" style="fill: #e5e5e5;"/><path d="M0 0 C1.98 0.66 3.96 1.32 6 2 C6 2.99 6 3.98 6 5 C3.03 4.505 3.03 4.505 0 4 C0 2.68 0 1.36 0 0 Z " transform="translate(1036,206)" style="fill: #F3661F;"/><path d="M0 0 C2.6855594 2.6855594 3.06049974 5.37621328 4 9 C1 8 1 8 -0.25 5.625 C-1 3 -1 3 0 0 Z " transform="translate(407,172)" style="fill: #e9e9e9;"/></svg>